<svg width="76" height="76" viewBox="0 0 76 76" fill="none" xmlns="http://www.w3.org/2000/svg">
<rect width="76" height="76" rx="38" fill="#5C96FF"/>
<path fill-rule="evenodd" clip-rule="evenodd" d="M41.0962 24.3868L50.0625 33.3531V51.7421H41.0694V44.0338C41.0694 42.6147 39.9191 41.4644 38.5 41.4644C37.0809 41.4644 35.9306 42.6147 35.9306 44.0338V51.7421H26.9375V33.0949L35.6456 24.3868C37.1507 22.8816 39.591 22.8816 41.0962 24.3868ZM29.5069 34.1591L37.4625 26.2036C37.9641 25.7019 38.7776 25.7019 39.2793 26.2036L47.4931 34.4174V49.1727H43.6389V44.0338C43.6389 41.1957 41.3381 38.8949 38.5 38.8949C35.6619 38.8949 33.3611 41.1957 33.3611 44.0338V49.1727H29.5069V34.1591Z" fill="#2D2D2D"/>
<mask id="mask0" mask-type="alpha" maskUnits="userSpaceOnUse" x="26" y="23" width="25" height="29">
<path fill-rule="evenodd" clip-rule="evenodd" d="M41.0962 24.3868L50.0625 33.3531V51.7421H41.0694V44.0338C41.0694 42.6147 39.9191 41.4644 38.5 41.4644C37.0809 41.4644 35.9306 42.6147 35.9306 44.0338V51.7421H26.9375V33.0949L35.6456 24.3868C37.1507 22.8816 39.591 22.8816 41.0962 24.3868ZM29.5069 34.1591L37.4625 26.2036C37.9641 25.7019 38.7776 25.7019 39.2793 26.2036L47.4931 34.4174V49.1727H43.6389V44.0338C43.6389 41.1957 41.3381 38.8949 38.5 38.8949C35.6619 38.8949 33.3611 41.1957 33.3611 44.0338V49.1727H29.5069V34.1591Z" fill="white"/>
</mask>
<g mask="url(#mask0)">
</g>
</svg>
