<svg width="19" height="18" viewBox="0 0 19 18" fill="none" xmlns="http://www.w3.org/2000/svg">
<path d="M1.48103 10.0833H14.5819L8.85835 15.37C8.40093 15.7925 8.40093 16.4858 8.85835 16.9083C9.31577 17.3308 10.0547 17.3308 10.5121 16.9083L18.2413 9.76917C18.6987 9.34667 18.6987 8.66417 18.2413 8.24167L10.5238 1.09167C10.3047 0.888813 10.0072 0.774811 9.69695 0.774811C9.38671 0.774811 9.08921 0.888813 8.87008 1.09167C8.41266 1.51417 8.41266 2.19667 8.87008 2.61917L14.5819 7.91667H1.48103C0.835956 7.91667 0.308167 8.40417 0.308167 9C0.308167 9.59584 0.835956 10.0833 1.48103 10.0833Z" fill="#37474F"/>
</svg>
