<svg width="353" height="304" viewBox="0 0 353 304" fill="none" xmlns="http://www.w3.org/2000/svg">
<path d="M180.29 759C180.29 759 333.42 726.57 339.727 639.926C346.034 553.283 108.129 622.74 203.369 441.926C298.61 261.113 384.687 256.637 339.727 143.926C294.767 31.2153 174.04 -27.9532 33.7896 16.8005C-106.461 61.5541 -119.663 348.926 -119.663 348.926" stroke="#D0D5F6" stroke-width="2"/>
<path d="M138.3 759C138.3 759 258.425 730.519 263.372 654.425C268.32 578.332 81.6932 639.331 156.406 480.535C231.118 321.738 298.641 317.808 263.372 218.821C228.103 119.835 133.398 67.8709 23.3774 107.175C-86.6435 146.479 -97 398.859 -97 398.859" stroke="#D0D5F6" stroke-width="2"/>
<path d="M102.065 761C102.065 761 192.97 736.159 196.714 669.792C200.458 603.425 59.2273 656.627 115.766 518.128C172.305 379.629 223.404 376.201 196.714 289.867C170.024 203.532 98.3554 158.211 15.0964 192.491C-68.1626 226.771 -76 446.892 -76 446.892" stroke="#D0D5F6" stroke-width="2"/>
</svg>
