<svg width="440" height="380" viewBox="0 0 440 380" fill="none" xmlns="http://www.w3.org/2000/svg">
<g id="Group">
<g id="Share">
<rect id="Mask" width="350" height="346" rx="8" fill="#E8EAF6"/>
<mask id="mask0" mask-type="alpha" maskUnits="userSpaceOnUse" x="0" y="0" width="350" height="346">
<rect id="Mask_2" width="350" height="346" rx="8" fill="white"/>
</mask>
<g mask="url(#mask0)">
<g id="Group 28">
<rect id="Rectangle" x="-3.53044" y="0.197266" width="547" height="59" fill="#242A45"/>
<g id="Group 7">
<circle id="Oval" opacity="0.244768" cx="38.4696" cy="30.1973" r="16" fill="white"/>
<g id="Group 6">
<rect id="Rectangle_2" opacity="0.75" x="69.4696" y="20.1973" width="120" height="6" rx="3" fill="white"/>
<rect id="Rectangle Copy 6" opacity="0.25" x="69.4696" y="34.1973" width="64" height="6" rx="3" fill="white"/>
</g>
</g>
</g>
</g>
</g>
<rect id="Rectangle Copy" x="27" y="85" width="237" height="34" rx="8" fill="white"/>
<rect id="Rectangle Copy 2" x="27" y="133" width="237" height="34" rx="8" fill="white"/>
<rect id="Rectangle Copy 3" x="27" y="181" width="237" height="34" rx="8" fill="white"/>
<rect id="Rectangle Copy 4" x="27" y="229" width="237" height="34" rx="8" fill="white"/>
<rect id="Rectangle Copy 5" x="27" y="277" width="237" height="34" rx="8" fill="white"/>
<g id="Group 119">
<g id="Group 3">
<mask id="mask1" mask-type="alpha" maskUnits="userSpaceOnUse" x="90" y="83" width="350" height="296">
<path id="Clip 2" fill-rule="evenodd" clip-rule="evenodd" d="M440 83.0479H90.2192V379H440V83.0479Z" fill="white"/>
</mask>
<g mask="url(#mask1)">
<path id="Fill 1" fill-rule="evenodd" clip-rule="evenodd" d="M91.2933 333.34C91.963 335.358 93.008 337.338 94.4668 339.275C119.669 372.749 213.843 383.908 306.691 377.089C355.167 373.527 389.361 352.563 410.972 333.34C416.135 328.746 420.582 324.252 424.332 320.118C429.001 314.972 432.645 309.257 435.242 303.222C442.888 285.444 441.416 264.906 430.119 248.061C420.542 233.785 407.397 223.237 400.606 211.518C387.674 189.202 456.043 132.782 411.552 97.1378C395.848 84.5542 362.393 81.6497 325.89 83.6024C281.462 85.9797 232.525 95.5573 205.606 103.647C149.894 120.384 115.026 144.628 107.067 171.903C99.1092 199.179 120.378 211.521 138.947 237.557C156.442 262.083 80.3937 300.554 91.2933 333.34Z" fill="#3A499E"/>
</g>
</g>
<path id="Fill 4" fill-rule="evenodd" clip-rule="evenodd" d="M185.451 173.872L202.436 171L205 186.799L184 193L185.451 173.872Z" fill="#306299"/>
<path id="Fill 6" fill-rule="evenodd" clip-rule="evenodd" d="M203 172.118C203 172.118 216.176 171.771 230 166L223.504 178.254L204.751 184L203 172.118Z" fill="#FA9E89"/>
<g id="Group 10">
<mask id="mask2" mask-type="alpha" maskUnits="userSpaceOnUse" x="280" y="85" width="158" height="220">
<path id="Clip 9" fill-rule="evenodd" clip-rule="evenodd" d="M438 85.0479H280.175V304.892H438V85.0479Z" fill="white"/>
</mask>
<g mask="url(#mask2)">
<path id="Fill 8" opacity="0.152134" fill-rule="evenodd" clip-rule="evenodd" d="M280.934 137.186C289.046 177.345 426.94 238.876 433.571 304.892C440.689 287.14 439.318 266.634 428.802 249.814C419.887 235.559 407.651 225.027 401.33 213.325C389.291 191.043 452.934 134.707 411.519 99.1167C396.9 86.5517 365.758 83.6518 331.779 85.6015C321.435 87.966 273.615 100.933 280.934 137.186Z" fill="white"/>
</g>
</g>
<path id="Fill 11" opacity="0.149089" fill-rule="evenodd" clip-rule="evenodd" d="M88.1794 326C87.1955 333.866 90.5207 339.336 91.8192 341.227C114.249 373.899 236.314 384.79 318.951 378.135C362.096 374.659 397.455 352.42 419 327.916L88.1794 326Z" fill="black"/>
<path id="Fill 13" opacity="0.128046" fill-rule="evenodd" clip-rule="evenodd" d="M366.373 329.812C366.373 329.812 376.45 330.422 376.295 333.472C376.14 336.521 369.784 343.23 369.784 343.23L379.293 339.825L408 338.732L404.899 341.401C404.899 341.401 381.773 342.468 380.74 343.281C379.706 344.094 366.476 354.057 364.203 354.463C361.929 354.87 217.515 354.688 217.515 354.688C217.515 354.688 202.657 355.277 200.176 350.702C197.696 346.128 188.704 346.433 186.223 350.397C183.743 354.362 184.087 369 184.087 369C184.087 369 177.294 367.227 176.921 367.069C153.356 357.106 127 326 127 326L366.373 329.812Z" fill="black"/>
<path id="Fill 15" fill-rule="evenodd" clip-rule="evenodd" d="M397 290.695L382.549 339.858C382.549 339.858 380.494 342.302 379 340.038L388.714 290L397 290.695Z" fill="#162F44"/>
<path id="Fill 17" fill-rule="evenodd" clip-rule="evenodd" d="M416.866 289L424 322.138L420.603 326L411 289.954L416.866 289Z" fill="#162F44"/>
<path id="Fill 19" fill-rule="evenodd" clip-rule="evenodd" d="M204.507 300.082L198.482 334.282L197.483 339.951L199.675 340.273L199.831 340.297L204.619 341C204.619 341 220.59 301.656 221.949 292.213C223.309 282.77 196.804 245 196.804 245L168.036 247.448C167.275 255.667 178.78 271.159 189.063 283.218C197.164 292.717 204.507 300.082 204.507 300.082Z" fill="#F4F2F9"/>
<path id="Fill 21" fill-rule="evenodd" clip-rule="evenodd" d="M204.119 298.535L197.243 338.302L199.389 338.623L199.462 339C199.462 339 199.489 338.878 199.542 338.648C200.417 334.818 210.682 300.911 210.994 294C211.327 286.674 196.967 264 196.967 264L189 281.714C196.931 291.188 204.119 298.535 204.119 298.535Z" fill="#E0DFEA"/>
<path id="Fill 23" fill-rule="evenodd" clip-rule="evenodd" d="M166 249L194.667 246.613L196 198.886C196 198.886 189 174 181.333 174C176.78 174 172.347 175.804 169.634 180.195C167.78 183.198 166.73 187.415 167 193.091C167.61 205.868 166.27 241.998 166.033 248.113C166.014 248.69 166 249 166 249Z" fill="#6397D9"/>
<path id="Fill 25" fill-rule="evenodd" clip-rule="evenodd" d="M173.885 245.276L173.347 188.458L180 174.937L172.237 174L169.508 177.211C167.719 180.213 166.705 184.429 166.966 190.104C167.555 202.878 166.229 239.886 166 246L173.885 245.276Z" fill="#8BBFF7"/>
<path id="Fill 27" fill-rule="evenodd" clip-rule="evenodd" d="M174 190L195.017 230L195.563 212.009L196 197.411L178.476 190H174Z" fill="#306299"/>
<path id="Fill 29" fill-rule="evenodd" clip-rule="evenodd" d="M227.671 353H356.329C361.118 353 365 349.092 365 344.27V123.73C365 118.908 361.118 115 356.329 115H227.671C222.882 115 219 118.908 219 123.73V344.27C219 349.092 222.882 353 227.671 353Z" fill="white"/>
<path id="Fill 31" fill-rule="evenodd" clip-rule="evenodd" d="M227 146.29V234.71C227 236.528 228.456 238 230.253 238H353.747C355.544 238 357 236.528 357 234.71V146.29C357 144.472 355.544 143 353.747 143H230.253C228.456 143 227 144.472 227 146.29Z" fill="#E4DCF1"/>
<path id="Fill 33" fill-rule="evenodd" clip-rule="evenodd" d="M291.147 167L292.699 168.183L296 182.554L295.929 184.921L290.702 185C290.347 185.005 289.989 184.935 289.671 184.749C288.177 183.872 287.539 181.425 288.364 179.257C288.808 178.091 289.945 176.028 290.077 175.115C290.391 172.931 291.147 167 291.147 167Z" fill="#8E2B43"/>
<path id="Fill 35" fill-rule="evenodd" clip-rule="evenodd" d="M264 241L318.224 240.792L320.019 240.786C320.019 240.786 326.506 210.137 316.003 198.325C313.445 195.451 310.12 193.332 306.497 191.956C295.224 187.658 281.044 190.5 278.004 199.921C273.988 212.372 264 241 264 241Z" fill="#4EC9B4"/>
<path id="Fill 37" fill-rule="evenodd" clip-rule="evenodd" d="M306.16 192.489C306.16 192.489 303.945 198.515 299.057 199.783C294.169 201.052 288.568 196.559 289.026 191.326C289.026 191.326 293.711 190.639 294.474 188.366C295.402 185.605 294.78 185.512 294.78 185.512C294.78 185.512 292.947 182.023 292.336 179.486C291.725 176.949 292.641 167.117 296.918 166.165C299.623 165.564 303.945 166.483 307 170.923C307 170.923 305.472 179.486 303.334 183.609C301.195 187.732 300.126 189.635 306.16 192.489Z" fill="#FA9E89"/>
<path id="Fill 39" opacity="0.184408" fill-rule="evenodd" clip-rule="evenodd" d="M230.167 116.013L363 302.239V344.483C363 349.187 359.301 353 354.737 353H234.573C229.286 353 225 348.582 225 343.131V119.827C225 116.898 227.33 115.871 230.167 116.013Z" fill="#F4F2F9"/>
<path id="Fill 41" fill-rule="evenodd" clip-rule="evenodd" d="M270 222.442L263.018 192L252 193.816L262.684 238L270 222.442Z" fill="#4EC9B4"/>
<path id="Fill 43" fill-rule="evenodd" clip-rule="evenodd" d="M260.8 191.137L260.2 188.031C260.2 188.031 262 186.847 261.7 185.072C261.4 183.297 262 179.155 262 179.155C262 179.155 261.043 178.508 260.425 179.673C259.984 180.502 259.3 182.41 259.3 182.41C259.3 182.41 257.004 176.244 256.474 174.619C256.249 173.929 256.022 172.853 255.499 173.017C255.224 173.103 255.324 173.732 255.371 174.347C255.511 176.191 256.299 179.131 256.299 179.131L255.899 179.365L254.236 174.089C254.163 173.833 254.043 173.445 253.774 173.424C253.536 173.405 253.299 173.535 253.299 174.126C253.299 175.31 254.574 180.203 254.574 180.203L254.255 180.422L252.32 176.144C252.187 175.821 251.707 175.849 251.625 176.188C251.56 176.456 251.579 176.839 251.798 177.38C252.398 178.86 252.999 181.226 252.999 181.226L252.848 181.399L251.798 179.229C251.61 178.882 251.149 178.659 251.015 179.029C250.827 179.547 252.473 184 252.473 184.296C252.473 184.592 253.599 188.622 254.799 188.918C255.999 189.214 256.074 192 256.074 192L260.8 191.137Z" fill="#FA9E89"/>
<path id="Fill 45" fill-rule="evenodd" clip-rule="evenodd" d="M330.351 264H352.649C353.947 264 355 262.928 355 261.606V258.394C355 257.072 353.947 256 352.649 256H330.351C329.053 256 328 257.072 328 258.394V261.606C328 262.928 329.053 264 330.351 264Z" fill="#FFDEDD"/>
<path id="Fill 47" fill-rule="evenodd" clip-rule="evenodd" d="M298.351 264H320.649C321.947 264 323 262.928 323 261.606V258.394C323 257.072 321.947 256 320.649 256H298.351C297.053 256 296 257.072 296 258.394V261.606C296 262.928 297.053 264 298.351 264Z" fill="#FFDEDD"/>
<path id="Fill 49" fill-rule="evenodd" clip-rule="evenodd" d="M264.352 264H286.649C287.947 264 289 262.928 289 261.606V258.394C289 257.072 287.947 256 286.649 256H264.352C263.053 256 262 257.072 262 258.394V261.606C262 262.928 263.053 264 264.352 264Z" fill="#FFDEDD"/>
<path id="Fill 51" fill-rule="evenodd" clip-rule="evenodd" d="M232.351 264H254.649C255.947 264 257 262.928 257 261.606V258.394C257 257.072 255.947 256 254.649 256H232.351C231.053 256 230 257.072 230 258.394V261.606C230 262.928 231.053 264 232.351 264Z" fill="#FFDEDD"/>
<path id="Fill 53" fill-rule="evenodd" clip-rule="evenodd" d="M234.547 283H352.453C353.86 283 355 281.921 355 280.589V277.411C355 276.079 353.86 275 352.453 275H234.547C233.14 275 232 276.079 232 277.411V280.589C232 281.921 233.14 283 234.547 283Z" fill="#F4F2F9"/>
<path id="Fill 55" fill-rule="evenodd" clip-rule="evenodd" d="M352.453 299C353.86 299 355 297.921 355 296.589V293.411C355 292.079 353.86 291 352.453 291H234.547C233.14 291 232 292.079 232 293.411V296.589C232 297.921 233.14 299 234.547 299H352.453Z" fill="#F4F2F9"/>
<path id="Fill 57" fill-rule="evenodd" clip-rule="evenodd" d="M234.547 315H352.453C353.86 315 355 313.921 355 312.589V309.411C355 308.079 353.86 307 352.453 307H234.547C233.14 307 232 308.079 232 309.411V312.589C232 313.921 233.14 315 234.547 315Z" fill="#F4F2F9"/>
<path id="Fill 59" fill-rule="evenodd" clip-rule="evenodd" d="M234.547 328H352.453C353.86 328 355 326.921 355 325.589V322.411C355 321.079 353.86 320 352.453 320H234.547C233.14 320 232 321.079 232 322.411V325.589C232 326.921 233.14 328 234.547 328Z" fill="#F4F2F9"/>
<path id="Fill 61" fill-rule="evenodd" clip-rule="evenodd" d="M309.222 163.321C309.222 163.321 302.921 154.473 291.033 159.596C279.144 164.718 292.049 173.1 292.049 173.1C292.049 173.1 292.303 169.84 294.183 168.909L294.03 171.806L300.686 172.971L301.753 170.177L302.439 173.359L305.792 174.6C305.792 174.6 303.049 184.224 301.448 185.621C301.448 185.621 300.762 187.872 300.991 188.337C301.22 188.803 311.355 191.364 312.651 189.036C313.947 186.708 311.279 183.448 310.441 181.275C309.603 179.102 311.965 167.564 309.222 163.321Z" fill="#FC516B"/>
<path id="Fill 63" fill-rule="evenodd" clip-rule="evenodd" d="M338.352 139H355.648C356.947 139 358 137.657 358 136C358 134.343 356.947 133 355.648 133H338.352C337.053 133 336 134.343 336 136C336 137.657 337.053 139 338.352 139Z" fill="#E4DCF1"/>
<path id="Fill 65" fill-rule="evenodd" clip-rule="evenodd" d="M312 211C312 211 309.336 230.286 306.291 238H290.229C290.229 238 287.582 229.862 300.277 227.2C309.107 225.349 312 211 312 211Z" fill="#44AD99"/>
<path id="Fill 67" fill-rule="evenodd" clip-rule="evenodd" d="M280.389 206C280.389 206 277.13 216 277.741 219C278.352 222 281 224.2 281 226.2C281 228.2 279.37 235.8 279.37 235.8L270 236C270 236 271.556 235.734 275.093 232.95C280.491 228.7 275.857 219.325 277.002 214C277.603 211.206 280.389 206 280.389 206Z" fill="#44AD99"/>
<path id="Fill 69" fill-rule="evenodd" clip-rule="evenodd" d="M270 221.772C270 221.772 269.787 230.155 268.085 228.865C266.383 227.575 267.447 215.108 265.958 210.809C264.468 206.51 260 192.752 260 192.752L263.83 192L270 221.772Z" fill="#44AD99"/>
<path id="Fill 71" fill-rule="evenodd" clip-rule="evenodd" d="M244.623 183.475C244.623 183.475 243.047 184.167 241.124 186.521C240.487 187.301 237.093 188.542 236.29 189.509C224.645 203.529 209.094 214.35 199.126 210.042C186.396 204.54 184 199.424 184 199.424L192.414 188.062C192.414 188.062 202.077 202.821 209.848 198.801C217.62 194.781 232.94 184.244 232.94 184.244L233.346 177.78C233.346 177.78 234.241 177.54 234.67 178.775C235.1 180.011 235.12 181.079 235.12 181.079L241.169 174.055C241.169 174.055 242.331 173.695 241.977 174.824C241.623 175.953 239.486 179.192 239.486 179.192C239.486 179.192 239.267 179.808 239.729 179.527C240.269 179.2 244.495 174.435 244.495 174.435C244.495 174.435 245.468 174.371 245.071 175.301C244.764 176.018 242.206 179.392 241.341 180.655C241.083 181.031 241.623 180.89 241.623 180.89L245.119 177.921C245.592 177.601 246.082 177.707 245.988 178.288C245.914 178.748 244.962 179.807 244.396 180.227C242.982 181.273 241.996 183.179 241.996 183.179L245.04 182.08C245.04 182.08 245.635 182.607 244.623 183.475Z" fill="#FA9E89"/>
<path id="Fill 73" fill-rule="evenodd" clip-rule="evenodd" d="M173 146.49L176.851 174.81L189.495 177C189.495 177 188.854 176.332 188.123 175.44C187.375 174.533 186.532 173.391 186.16 172.474C185.31 170.37 185.304 168.408 185.304 168.408C185.304 168.408 190.912 169.041 191.781 165.813C192.653 162.581 190.638 147.529 190.638 147.529C190.638 147.529 188.136 138.071 173 146.49Z" fill="#FA9E89"/>
<path id="Fill 75" fill-rule="evenodd" clip-rule="evenodd" d="M183.613 146.812C183.613 146.812 189.849 151.522 195.832 147.51C195.832 147.51 192.04 147.161 190.86 145.242C190.86 145.242 193.219 145.853 196 141.928C196 141.928 191.113 142.626 189.428 141.143C187.742 139.66 179.147 137.305 174.007 140.881C168.867 144.457 168.951 147.074 168.951 147.074C168.951 147.074 165.918 148.207 166.002 149.952C166.086 151.696 173.501 166 173.501 166L175.102 159.633C175.102 159.633 173.838 160.011 173.08 157.046C172.322 154.08 175.608 155.359 175.945 155.97C176.282 156.581 178.473 151.783 178.473 151.783L178.136 148.992C178.136 148.992 177.04 145.416 183.613 146.812Z" fill="#261F27"/>
<path id="Fill 77" fill-rule="evenodd" clip-rule="evenodd" d="M171.786 279.384C175.377 293.871 168.736 351.793 168.736 351.793L175.234 353C201.395 292.985 195.41 244 195.41 244L166 246.414C166 246.414 166.075 245.19 166.106 245.48C166.444 248.488 168.514 266.169 171.786 279.384Z" fill="white"/>
<path id="Fill 79" fill-rule="evenodd" clip-rule="evenodd" d="M204.27 337.076L211.823 342.935C211.823 342.935 214.798 342.576 215.371 343.951C215.943 345.326 216 346.88 216 346.88L208.104 347L195 341.799L197.06 336L204.27 337.076Z" fill="#6397D9"/>
<path id="Fill 81" fill-rule="evenodd" clip-rule="evenodd" d="M174.449 354.34C174.449 354.34 177.122 358.662 179.815 362.192C180.72 363.378 182.932 363.893 183.793 366.787C184.533 369.276 183.053 371 183.053 371C183.053 371 178.088 370.106 174.634 367.043C171.181 363.979 166 358.106 166 358.106L167.418 353L174.449 354.34Z" fill="#6397D9"/>
<path id="Fill 83" fill-rule="evenodd" clip-rule="evenodd" d="M374 282C374 285.866 386.984 289 403 289C419.016 289 432 285.866 432 282C432 278.134 419.016 275 403 275C386.984 275 374 278.134 374 282Z" fill="#224A7D"/>
<path id="Fill 85" fill-rule="evenodd" clip-rule="evenodd" d="M374 281C374 284.866 386.984 288 403 288C419.016 288 432 284.866 432 281C432 277.134 419.016 274 403 274C386.984 274 374 277.134 374 281Z" fill="#6397D9"/>
<path id="Fill 87" fill-rule="evenodd" clip-rule="evenodd" d="M395 277C395 278.657 400.373 280 407 280C413.627 280 419 278.657 419 277C419 275.343 413.627 274 407 274C400.373 274 395 275.343 395 277Z" fill="#162F44"/>
<path id="Fill 89" fill-rule="evenodd" clip-rule="evenodd" d="M432 280V283.986C432 283.986 431.93 286.45 427 288L428.179 283.682C428.179 283.682 431.642 282.187 432 280Z" fill="#162F44"/>
<path id="Fill 91" fill-rule="evenodd" clip-rule="evenodd" d="M374.006 280V284.085C374.006 284.085 373.617 286.128 379 288L377.348 283.234C377.348 283.234 374.487 281.957 374.006 280Z" fill="#8CC5F2"/>
<path id="Fill 93" fill-rule="evenodd" clip-rule="evenodd" d="M393 267.038L394.968 274.728C395.456 276.642 397.391 278 399.621 278H403.854C405.439 278 406.879 277.315 407.753 276.228C408.059 275.847 408.295 275.416 408.446 274.95L410.152 269.637L411 267L393 267.038Z" fill="#FC516B"/>
<path id="Fill 95" fill-rule="evenodd" clip-rule="evenodd" d="M393 266C393 266.552 397.029 267 402 267C406.971 267 411 266.552 411 266C411 265.448 406.971 265 402 265C397.029 265 393 265.448 393 266Z" fill="#9B293F"/>
<path id="Fill 97" fill-rule="evenodd" clip-rule="evenodd" d="M405.406 276.657C405.052 276.794 404.718 276.91 404.405 277L406.516 276.676C406.806 276.274 407.029 275.819 407.173 275.326L408.789 269.718C408.87 269.448 409 269.019 409 269C409 269 404.785 270.242 401 269.818C402.231 269.982 405.31 270.23 407.168 270.138C407.628 270.115 407.995 270.507 407.932 270.953C407.698 272.61 407.027 276.027 405.406 276.657Z" fill="#F995A9"/>
<path id="Fill 99" fill-rule="evenodd" clip-rule="evenodd" d="M401 263.901L401.679 266.988L402.173 267C402.173 267 402.201 263.901 405.847 261.999C409.496 260.1 408.974 253 408.974 253L408.971 253.009C408.883 253.192 407.483 256.108 406.422 256.3C405.328 256.501 404.649 258.25 404.649 258.25C404.649 258.25 404.127 259 403.502 258.85C402.876 258.7 402.251 260.349 402.251 260.349L402.044 262.101L401 263.901Z" fill="#51A595"/>
<path id="Fill 101" fill-rule="evenodd" clip-rule="evenodd" d="M405.993 269.987C405.993 269.987 406.693 246.551 394.392 240C394.392 240 390.892 241.352 394.992 246.967C399.092 252.582 395.792 256.638 397.592 258.094C399.392 259.549 401.993 260.485 401.592 262.357C401.192 264.229 401.692 266.101 402.492 266.309C403.293 266.516 405.093 267.621 405.374 270L405.993 269.987Z" fill="#4EC9B4"/>
<path id="Fill 103" fill-rule="evenodd" clip-rule="evenodd" d="M406 265.8L406.041 266.988L406.578 267C406.578 267 406.609 263.901 410.572 261.999C414.54 260.1 413.972 253 413.972 253L413.968 253.009L413.632 254.077C413.632 260.526 409.909 261.864 408.42 262.725C406.931 263.586 406 265.8 406 265.8Z" fill="#41877A"/>
<path id="Fill 105" fill-rule="evenodd" clip-rule="evenodd" d="M186.185 177.105C186.185 177.105 175.633 177.277 174.691 176L174 177.898C174 177.898 182.361 182.455 188 180.522L186.185 177.105Z" fill="#306299"/>
<path id="Fill 107" fill-rule="evenodd" clip-rule="evenodd" d="M201 190.916L188.412 205C188.412 205 171.59 189.918 172.008 185.19C172.425 180.463 178.589 170.675 188.042 179.667C197.24 188.415 201 190.916 201 190.916Z" fill="#8CC5F2"/>
<path id="Fill 109" fill-rule="evenodd" clip-rule="evenodd" d="M168.565 352.654L171.131 353C171.131 353 183.157 310.53 179.202 279.153C178.012 269.719 173.857 246 173.857 246L166 246.737C166.318 249.76 168.357 266.592 171.426 279.874C174.793 294.436 168.565 352.654 168.565 352.654Z" fill="#F4F2F9"/>
<path id="Fill 111" fill-rule="evenodd" clip-rule="evenodd" d="M182.253 175.558C183.741 175.882 184.552 175.985 185 176C184.302 175.034 183.516 173.818 183.168 172.842C182.375 170.601 182.369 168.512 182.369 168.512C182.369 168.512 179.398 167.73 179.092 168.099C178.788 168.467 179.092 174.869 182.253 175.558Z" fill="#E6846F"/>
<path id="Fill 113" fill-rule="evenodd" clip-rule="evenodd" d="M328 179C328 189.492 336.048 198 345.973 198C350.129 198 353.954 196.509 357 194.004V163.996C353.954 161.491 350.129 160 345.973 160C336.048 160 328 168.508 328 179Z" fill="#CEC3E2"/>
<path id="Fill 115" fill-rule="evenodd" clip-rule="evenodd" d="M328 179.5C328 189.716 335.493 198 344.734 198C348.603 198 352.165 196.548 355 194.109V164.891C352.165 162.452 348.603 161 344.734 161C335.493 161 328 169.284 328 179.5Z" fill="#C3B8D8"/>
<path id="Fill 117" fill-rule="evenodd" clip-rule="evenodd" d="M302 196.096C302 196.096 303.985 194.992 304.298 194.791C304.612 194.592 308.687 195.693 314.124 201.307C319.557 206.921 314.854 211.631 317.152 214.638C319.453 217.645 317.259 223.96 316.108 228.272C314.958 232.581 316.108 237.994 316.108 237.994L316.168 238L317.989 237.994C317.989 237.994 324.573 209.126 313.914 197.999C311.318 195.293 307.944 193.296 304.267 192L302 196.096Z" fill="#44AD99"/>
</g>
</g>
</svg>
