<svg width="536" height="346" viewBox="0 0 536 346" fill="none" xmlns="http://www.w3.org/2000/svg">
<g id="Group 32">
<g id="GoViral - Wordpress Theme">
<rect id="Mask" width="536" height="346" rx="8" fill="#E8EAF6"/>
<mask id="mask0" mask-type="alpha" maskUnits="userSpaceOnUse" x="0" y="0" width="536" height="346">
<rect id="Mask_2" width="536" height="346" rx="8" fill="white"/>
</mask>
<g mask="url(#mask0)">
<g id="Group 28">
<rect id="Rectangle" x="-3.53043" y="0.197021" width="547" height="59" fill="#242A45"/>
<g id="Group 7">
<circle id="Oval" opacity="0.244768" cx="38.4696" cy="30.197" r="16" fill="white"/>
<circle id="Oval Copy" opacity="0.104399" cx="499.47" cy="30.197" r="16" fill="white"/>
<g id="Group 6">
<rect id="Rectangle_2" opacity="0.75" x="69.4696" y="20.197" width="120" height="6" rx="3" fill="white"/>
<rect id="Rectangle Copy 6" opacity="0.25" x="69.4696" y="34.197" width="64" height="6" rx="3" fill="white"/>
</g>
</g>
</g>
<g id="Group 26">
<rect id="Rectangle_3" x="57" y="93" width="261" height="316" rx="8" fill="white"/>
<rect id="Rectangle Copy 7" x="352" y="93" width="128" height="316" rx="8" fill="white"/>
<rect id="Rectangle_4" opacity="0.5" x="135.47" y="131.197" width="120" height="6" rx="3" fill="#242A45"/>
</g>
</g>
</g>
<g id="Group 29">
<circle id="Oval_2" cx="104.47" cy="141.197" r="16" fill="#F98E5D"/>
<rect id="Rectangle_5" opacity="0.25" x="372.47" y="115.197" width="88" height="6" rx="3" fill="#242A45"/>
<rect id="Rectangle Copy 8" opacity="0.25" x="372.47" y="135.197" width="88" height="6" rx="3" fill="#242A45"/>
<rect id="Rectangle Copy 9" opacity="0.25" x="372.47" y="155.197" width="88" height="6" rx="3" fill="#242A45"/>
<rect id="Rectangle Copy 10" opacity="0.25" x="372.47" y="175.197" width="88" height="6" rx="3" fill="#242A45"/>
<rect id="Rectangle Copy 11" opacity="0.25" x="372.47" y="209.197" width="88" height="6" rx="3" fill="#242A45"/>
<rect id="Rectangle Copy 12" opacity="0.25" x="372.47" y="229.197" width="88" height="6" rx="3" fill="#242A45"/>
<rect id="Rectangle Copy 13" opacity="0.25" x="372.47" y="249.197" width="88" height="6" rx="3" fill="#242A45"/>
<rect id="Rectangle Copy 6_2" opacity="0.25" x="135.47" y="145.197" width="64" height="6" rx="3" fill="#242A45"/>
</g>
<g id="Group 29 Copy">
<circle id="Oval_3" cx="104.47" cy="197.197" r="16" fill="#6AC6D6"/>
<rect id="Rectangle_6" opacity="0.5" x="135.47" y="187.197" width="120" height="6" rx="3" fill="#242A45"/>
<rect id="Rectangle Copy 6_3" opacity="0.25" x="135.47" y="201.197" width="64" height="6" rx="3" fill="#242A45"/>
</g>
<g id="Group 29 Copy 2">
<circle id="Oval_4" cx="104.47" cy="253.197" r="16" fill="#A47ED4"/>
<rect id="Rectangle_7" opacity="0.5" x="135.47" y="243.197" width="120" height="6" rx="3" fill="#242A45"/>
<rect id="Rectangle Copy 6_4" opacity="0.25" x="135.47" y="257.197" width="64" height="6" rx="3" fill="#242A45"/>
</g>
<g id="Group 29 Copy 3">
<circle id="Oval_5" cx="104.47" cy="309.197" r="16" fill="#EC7878"/>
<rect id="Rectangle_8" opacity="0.5" x="135.47" y="299.197" width="120" height="6" rx="3" fill="#242A45"/>
<rect id="Rectangle Copy 6_5" opacity="0.25" x="135.47" y="313.197" width="64" height="6" rx="3" fill="#242A45"/>
</g>
</g>
</svg>
