<svg width="536" height="346" fill="none" xmlns="http://www.w3.org/2000/svg"><rect width="536" height="346" rx="8" fill="#E8EAF6"/><mask id="prefix__a" mask-type="alpha" maskUnits="userSpaceOnUse" x="0" y="0" width="536" height="346"><rect width="536" height="346" rx="8" fill="#fff"/></mask><g mask="url(#prefix__a)"><path fill="#242A45" d="M-3.53.197h547v59h-547z"/><g fill="#fff"><circle opacity=".245" cx="38.47" cy="30.197" r="16"/><circle opacity=".104" cx="499.47" cy="30.197" r="16"/><rect opacity=".75" x="69.47" y="20.197" width="120" height="6" rx="3"/><rect opacity=".25" x="69.47" y="34.197" width="64" height="6" rx="3"/></g><g><rect x="57" y="93" width="261" height="316" rx="8" fill="#fff"/><rect x="352" y="93" width="128" height="316" rx="8" fill="#fff"/><rect opacity=".5" x="135.47" y="131.197" width="120" height="6" rx="3" fill="#242A45"/></g></g><circle cx="104.47" cy="141.197" r="16" fill="#F98E5D"/><rect opacity=".25" x="372.47" y="115.197" width="88" height="6" rx="3" fill="#242A45"/><rect opacity=".25" x="372.47" y="135.197" width="88" height="6" rx="3" fill="#242A45"/><rect opacity=".25" x="372.47" y="155.197" width="88" height="6" rx="3" fill="#242A45"/><rect opacity=".25" x="372.47" y="175.197" width="88" height="6" rx="3" fill="#242A45"/><rect opacity=".25" x="372.47" y="209.197" width="88" height="6" rx="3" fill="#242A45"/><rect opacity=".25" x="372.47" y="229.197" width="88" height="6" rx="3" fill="#242A45"/><rect opacity=".25" x="372.47" y="249.197" width="88" height="6" rx="3" fill="#242A45"/><rect opacity=".25" x="135.47" y="145.197" width="64" height="6" rx="3" fill="#242A45"/><g><circle cx="104.47" cy="197.197" r="16" fill="#6AC6D6"/><rect opacity=".5" x="135.47" y="187.197" width="120" height="6" rx="3" fill="#242A45"/><rect opacity=".25" x="135.47" y="201.197" width="64" height="6" rx="3" fill="#242A45"/></g><g><circle cx="104.47" cy="253.197" r="16" fill="#A47ED4"/><rect opacity=".5" x="135.47" y="243.197" width="120" height="6" rx="3" fill="#242A45"/><rect opacity=".25" x="135.47" y="257.197" width="64" height="6" rx="3" fill="#242A45"/></g><g><circle cx="104.47" cy="309.197" r="16" fill="#EC7878"/><rect opacity=".5" x="135.47" y="299.197" width="120" height="6" rx="3" fill="#242A45"/><rect opacity=".25" x="135.47" y="313.197" width="64" height="6" rx="3" fill="#242A45"/></g></svg>