<svg width="121" height="33" viewBox="0 0 121 33" fill="none" xmlns="http://www.w3.org/2000/svg">
<path fill-rule="evenodd" clip-rule="evenodd" d="M34.6986 25.0001H40.1386V13.5761C40.1386 12.8054 40.0706 12.0177 39.9346 11.2131C39.7986 10.4084 39.5323 9.68306 39.1356 9.03705C38.739 8.39105 38.1723 7.85839 37.4356 7.43905C36.699 7.01972 35.73 6.81005 34.5286 6.81005C33.2366 6.81005 32.0523 7.09905 30.9756 7.67705C29.899 8.25506 29.032 9.07672 28.3746 10.1421V0.180054H22.9346V25.0001H28.3746V14.7661C28.5333 14.2901 28.76 13.8594 29.0546 13.4741C29.3493 13.0887 29.6723 12.7544 30.0236 12.4711C30.375 12.1877 30.7376 11.9724 31.1116 11.8251C31.4856 11.6777 31.8313 11.6041 32.1486 11.6041C32.942 11.6041 33.5653 11.8761 34.0186 12.4201C34.472 12.9641 34.6986 13.814 34.6986 14.9701V25.0001ZM16.0005 7.42205C16.4085 7.67139 16.6465 7.84139 16.7145 7.93205L19.1625 3.30805C18.6185 2.99072 18.0235 2.67339 17.3775 2.35605C16.7315 2.03872 16.0345 1.75539 15.2865 1.50605C14.5385 1.25672 13.7565 1.05272 12.9405 0.894054C12.1245 0.735386 11.2972 0.656054 10.4585 0.656054C9.25718 0.656054 8.11819 0.826052 7.04152 1.16605C5.96485 1.50606 5.01852 2.01038 4.20252 2.67905C3.38651 3.34772 2.74052 4.16938 2.26452 5.14405C1.78852 6.11873 1.55052 7.24071 1.55052 8.51005C1.55052 9.41673 1.68085 10.2101 1.94152 10.8901C2.20219 11.5701 2.59885 12.1707 3.13152 12.6921C3.66419 13.2134 4.33851 13.6724 5.15452 14.0691C5.97052 14.4657 6.93385 14.8341 8.04452 15.1741C8.37999 15.2738 8.70548 15.3699 9.021 15.4624L10.7225 15.9575C11.2907 16.1322 11.7921 16.3187 12.2265 16.5171C12.7479 16.7551 13.1558 17.0214 13.4505 17.3161C13.7452 17.6107 13.8925 17.9847 13.8925 18.4381C13.8925 19.6394 12.9065 20.2401 10.9345 20.2401C10.0052 20.2401 9.08719 20.1154 8.18052 19.8661C7.27385 19.6167 6.45219 19.3334 5.71552 19.0161C4.97885 18.6987 4.36119 18.3814 3.86252 18.0641C3.36385 17.7467 3.06918 17.5314 2.97852 17.4181L0.530518 22.2801C1.23319 22.7561 1.99818 23.1754 2.82552 23.5381C3.65286 23.9007 4.50851 24.2124 5.39252 24.4731C6.27652 24.7337 7.18318 24.9321 8.11252 25.0681C9.04185 25.2041 9.94851 25.2721 10.8325 25.2721C11.9885 25.2721 13.1105 25.1417 14.1985 24.8811C15.2865 24.6204 16.2498 24.2011 17.0885 23.6231C17.9272 23.045 18.6015 22.2857 19.1115 21.3451C19.6215 20.4044 19.8765 19.2541 19.8765 17.8941C19.8765 16.7834 19.7009 15.8314 19.3495 15.0381C18.9982 14.2447 18.4995 13.5704 17.8535 13.0151C17.2075 12.4597 16.4199 11.9951 15.4905 11.6211C14.5612 11.2471 13.5185 10.9014 12.3625 10.5841C12.083 10.5085 11.8147 10.4355 11.5578 10.3649L10.1525 9.97205C9.51785 9.79072 8.99085 9.59239 8.57152 9.37705C8.15218 9.16172 7.83485 8.91805 7.61952 8.64605C7.40418 8.37405 7.29652 8.03406 7.29652 7.62605C7.29652 6.28871 8.29384 5.62005 10.2885 5.62005C11.0139 5.62005 11.7392 5.72205 12.4645 5.92605C13.1899 6.13005 13.8585 6.36805 14.4705 6.64005C15.0825 6.91206 15.5925 7.17272 16.0005 7.42205ZM52.4787 25.3401C50.9601 25.3401 49.6057 25.0907 48.4157 24.5921C47.2257 24.0934 46.2227 23.4191 45.4067 22.5691C44.5907 21.719 43.9731 20.7331 43.5537 19.6111C43.1344 18.489 42.9247 17.3161 42.9247 16.0921C42.9247 14.868 43.1344 13.6951 43.5537 12.5731C43.9731 11.451 44.5907 10.4651 45.4067 9.61505C46.2227 8.76505 47.2257 8.08506 48.4157 7.57505C49.6057 7.06505 50.9601 6.81005 52.4787 6.81005C53.9974 6.81005 55.3461 7.06505 56.5247 7.57505C57.7034 8.08506 58.7007 8.76505 59.5167 9.61505C60.3327 10.4651 60.9561 11.451 61.3867 12.5731C61.8174 13.6951 62.0327 14.868 62.0327 16.0921C62.0327 17.3161 61.8231 18.489 61.4037 19.6111C60.9844 20.7331 60.3667 21.719 59.5507 22.5691C58.7347 23.4191 57.7317 24.0934 56.5417 24.5921C55.3517 25.0907 53.9974 25.3401 52.4787 25.3401ZM49.6227 19.4751C48.8747 18.625 48.5007 17.4974 48.5007 16.0921C48.5007 15.4121 48.6027 14.7831 48.8067 14.2051C49.0107 13.6271 49.2884 13.1341 49.6397 12.7261C49.9911 12.3181 50.4104 12.0007 50.8977 11.7741C51.3851 11.5474 51.9121 11.4341 52.4787 11.4341C53.6121 11.4341 54.5527 11.859 55.3007 12.7091C56.0487 13.5591 56.4227 14.6867 56.4227 16.0921C56.4227 16.7721 56.3207 17.4011 56.1167 17.9791C55.9127 18.5571 55.6351 19.0501 55.2837 19.4581C54.9324 19.8661 54.5187 20.1834 54.0427 20.4101C53.5667 20.6367 53.0454 20.7501 52.4787 20.7501C51.3227 20.7501 50.3707 20.3251 49.6227 19.4751ZM76.2768 11.8081C74.9622 11.8307 73.7722 12.0461 72.7068 12.4541C71.6415 12.8621 70.8708 13.474 70.3949 14.2901V25.0001H64.9548V7.15005H69.9529V10.7541C70.5648 9.55271 71.3525 8.61206 72.3158 7.93205C73.2792 7.25205 74.3048 6.90072 75.3929 6.87805H75.9369C76.0502 6.87805 76.1635 6.88939 76.2768 6.91205V11.8081ZM87.784 24.9321C88.7473 24.6601 89.603 24.3654 90.351 24.0481L89.297 19.7301C88.9796 19.8887 88.6056 20.0361 88.175 20.1721C87.7443 20.3081 87.325 20.3761 86.917 20.3761C86.4636 20.3761 86.0896 20.2457 85.795 19.9851C85.5003 19.7244 85.353 19.2994 85.353 18.7101V11.2641H88.991V7.15005H85.353V1.47205H79.913V7.15005H77.635V11.2641H79.913V20.5801C79.913 21.4414 80.0433 22.1781 80.304 22.7901C80.5646 23.4021 80.9216 23.8951 81.375 24.2691C81.8283 24.6431 82.3553 24.9151 82.956 25.0851C83.5566 25.2551 84.197 25.3401 84.877 25.3401C85.8516 25.3401 86.8206 25.2041 87.784 24.9321ZM92.6271 0.180054H98.0671V18.6421C98.0671 20.0021 98.6451 20.6821 99.8011 20.6821C100.073 20.6821 100.373 20.6424 100.702 20.5631C101.031 20.4837 101.331 20.3647 101.603 20.2061L102.317 24.2861C101.637 24.6034 100.855 24.8527 99.9711 25.0341C99.0871 25.2154 98.2597 25.3061 97.4891 25.3061C95.9251 25.3061 94.7237 24.8981 93.8851 24.0821C93.0464 23.2661 92.6271 22.0874 92.6271 20.5461V0.180054ZM105.358 28.0261C104.962 27.9581 104.537 27.8447 104.083 27.6861V32.3441C104.559 32.5254 105.03 32.6557 105.494 32.7351C105.959 32.8144 106.418 32.8541 106.871 32.8541C108.549 32.8541 109.999 32.3951 111.223 31.4771C112.447 30.559 113.297 29.3634 113.773 27.8901L120.573 7.15005H115.473L111.903 20.3421L107.755 7.15005H102.145L108.945 25.0001C108.651 26.1787 108.322 26.9947 107.959 27.4481C107.597 27.9014 107.087 28.1281 106.429 28.1281C106.112 28.1281 105.755 28.0941 105.358 28.0261Z" fill="white"/>
</svg>
