<svg xmlns="http://www.w3.org/2000/svg" width="112" height="18" fill="none"  xmlns:v="https://vecta.io/nano"><path fill-rule="evenodd" d="M33.83 13.508l-1.935-.97L30 15.421c.665.381 1.389.731 2.17 1.049s1.604.591 2.467.819a21.58 21.58 0 0 0 2.708.527c.942.123 1.907.185 2.894.185 1.495 0 2.852-.14 4.071-.421s2.26-.692 3.123-1.234 1.529-1.208 1.996-1.996.701-1.688.701-2.697c0-.755-.138-1.437-.415-2.047a4.19 4.19 0 0 0-1.222-1.559c-.538-.43-1.206-.761-2.002-.993s-1.71-.348-2.742-.348l-1.688.084-1.705.185-.816.097-.777.088-1.34.084c-.965 0-1.682-.166-2.153-.499s-.706-.761-.706-1.284c0-.269.073-.54.219-.813s.406-.52.779-.74.877-.402 1.508-.544 1.437-.213 2.417-.213c.688 0 1.363.039 2.024.118l1.923.32 1.783.477 1.593.6 1.559-2.871c-.598-.269-1.245-.514-1.94-.735S45.011.65 44.26.493L41.944.129C41.151.043 40.363 0 39.578 0c-1.084 0-2.05.077-2.899.23s-1.596.364-2.243.634-1.198.589-1.654.959-.828.77-1.116 1.2-.497.88-.628 1.351-.196.946-.196 1.424c0 .807.165 1.514.493 2.12a4.5 4.5 0 0 0 1.329 1.514 5.98 5.98 0 0 0 1.918.908c.721.202 1.475.303 2.26.303.471 0 .974-.032 1.508-.095l1.626-.208.82-.108.812-.1c.538-.063 1.05-.095 1.536-.095 1.107 0 1.925.185 2.456.555s.796.873.796 1.508c0 .396-.107.763-.32 1.099s-.553.626-1.02.869-1.071.434-1.811.572-1.637.207-2.692.207c-.875 0-1.699-.052-2.473-.157s-1.512-.256-2.215-.454-1.381-.441-2.035-.729zM0 .224h3.578v17.529H0V.224zm8.086 0h3.555l10.923 5.72V.224h3.555v17.529h-3.555V9.712L11.641 4.026v13.727H8.086V.224zm45.297 0h3.555V9.88c0 .793.108 1.497.325 2.114s.54 1.138.97 1.564.963.75 1.598.97 1.376.331 2.221.331c.837 0 1.576-.11 2.215-.331s1.174-.544 1.604-.97.753-.948.97-1.564.325-1.322.325-2.114V.224h3.555v10.082c0 1.151-.194 2.198-.583 3.14s-.953 1.75-1.693 2.422-1.647 1.192-2.72 1.559-2.297.55-3.673.55-2.6-.183-3.673-.55-1.979-.886-2.72-1.559-1.305-1.48-1.693-2.422-.583-1.989-.583-3.14V.224zm30.583 0h-8.916v17.529h3.555v-4.991l5.484.011 3.297 4.98h4.351l-3.813-5.607c.665-.254 1.245-.574 1.738-.959s.903-.824 1.228-1.318.566-1.034.723-1.621.236-1.206.236-1.856c0-.964-.159-1.828-.477-2.591s-.802-1.409-1.452-1.94S88.452.925 87.465.645 85.312.224 83.966.224zm.09 9.465c.673 0 1.262-.079 1.766-.236s.927-.378 1.267-.662a2.65 2.65 0 0 0 .763-1.037c.168-.407.252-.862.252-1.363 0-.979-.337-1.736-1.009-2.271s-1.686-.802-3.039-.802h-5.451v6.37h5.451zM110.983.224H96.056v17.529h15.163v-3.107H99.611V9.768h10.071V6.841H99.611V3.342h11.372V.224z" fill="#2c2830"/></svg>