<svg width="32" height="32" viewBox="0 0 32 32" fill="none" xmlns="http://www.w3.org/2000/svg">
<path d="M16.0027 28.0547C12.7227 28.0547 12.336 28.0373 11.056 27.9813C10.0578 27.9485 9.0726 27.7456 8.14269 27.3813C6.53377 26.7552 5.26154 25.4825 4.63602 23.8733C4.28576 22.9401 4.09684 21.954 4.07735 20.9573C4.00269 19.68 4.00269 19.2613 4.00269 16.0067C4.00269 12.7173 4.02002 12.3333 4.07735 11.06C4.09727 10.0647 4.28618 9.08001 4.63602 8.148C5.26086 6.53671 6.53515 5.2629 8.14669 4.63867C9.07821 4.28694 10.0631 4.09753 11.0587 4.07867C12.332 4.00667 12.7507 4.00667 16.0027 4.00667C19.3094 4.00667 19.6894 4.024 20.9494 4.07867C21.9475 4.09769 22.935 4.28708 23.8694 4.63867C25.4804 5.26361 26.7545 6.53717 27.38 8.148C27.7362 9.09359 27.9261 10.0937 27.9414 11.104C28.016 12.3813 28.016 12.7987 28.016 16.052C28.016 19.3053 27.9974 19.732 27.9414 20.9947C27.9215 21.9923 27.7321 22.9792 27.3814 23.9133C26.7542 25.5236 25.4801 26.7968 23.8694 27.4227C22.9363 27.7723 21.9508 27.9612 20.9547 27.9813C19.6814 28.0547 19.264 28.0547 16.0027 28.0547ZM15.9574 6.11734C12.696 6.11734 12.3574 6.13334 11.084 6.19067C10.324 6.20074 9.57133 6.34099 8.85869 6.60533C7.80636 7.00801 6.97365 7.83732 6.56669 8.888C6.3003 9.6084 6.16003 10.3693 6.15202 11.1373C6.08135 12.4293 6.08135 12.768 6.08135 16.0067C6.08135 19.2067 6.09335 19.5947 6.15202 20.8787C6.16395 21.6389 6.30415 22.3917 6.56669 23.1053C6.97425 24.1553 7.80681 24.984 8.85869 25.3867C9.57084 25.6528 10.3238 25.7931 11.084 25.8013C12.3747 25.876 12.7147 25.876 15.9574 25.876C19.228 25.876 19.5667 25.86 20.8294 25.8013C21.5899 25.7921 22.3431 25.6518 23.056 25.3867C24.102 24.9805 24.9293 24.1537 25.336 23.108C25.6019 22.387 25.7421 21.6257 25.7507 20.8573H25.7654C25.8227 19.5827 25.8227 19.2427 25.8227 15.9853C25.8227 12.728 25.808 12.3853 25.7507 11.112C25.7387 10.3526 25.5985 9.60068 25.336 8.888C24.9302 7.84077 24.1028 7.01239 23.056 6.60533C22.3433 6.33966 21.5899 6.19936 20.8294 6.19067C19.54 6.11734 19.2027 6.11734 15.9574 6.11734ZM16.0027 22.1653C13.5093 22.167 11.2606 20.6663 10.3052 18.3633C9.34976 16.0602 9.8759 13.4084 11.6382 11.6446C13.4005 9.88079 16.0518 9.35236 18.3557 10.3058C20.6596 11.2592 22.1621 13.5067 22.1627 16C22.159 19.4014 19.4041 22.1587 16.0027 22.1653ZM16.0027 11.9973C13.7935 11.9973 12.0027 13.7882 12.0027 15.9973C12.0027 18.2065 13.7935 19.9973 16.0027 19.9973C18.2118 19.9973 20.0027 18.2065 20.0027 15.9973C19.9976 13.7903 18.2097 12.0025 16.0027 11.9973ZM22.4027 11.0467C21.6099 11.0437 20.9692 10.3995 20.9707 9.60668C20.9722 8.81391 21.6152 8.17201 22.408 8.17201C23.2008 8.17201 23.8439 8.81389 23.8454 9.60667C23.8457 9.98915 23.6937 10.356 23.423 10.6262C23.1523 10.8964 22.7852 11.0477 22.4027 11.0467Z" fill="#E6DFC7"/>
</svg>
