<svg width="32" height="32" viewBox="0 0 32 32" fill="none" xmlns="http://www.w3.org/2000/svg">
<path d="M2.66934 16.0027C2.67089 22.5619 7.44055 28.1467 13.9187 29.1747V19.856H10.536V16.0027H13.9227V13.0693C13.7713 11.6794 14.246 10.2941 15.2182 9.28925C16.1904 8.28437 17.5591 7.76402 18.9533 7.86934C19.9541 7.8855 20.9523 7.97463 21.94 8.13601V11.4147H20.2547C19.6745 11.3387 19.0912 11.5303 18.669 11.9356C18.2469 12.3408 18.0317 12.9159 18.084 13.4987V16.0027H21.7787L21.188 19.8573H18.084V29.1747C25.09 28.0675 30.0028 21.669 29.2634 14.6148C28.5239 7.5605 22.3911 2.31991 15.3078 2.68958C8.22449 3.05924 2.67047 8.90975 2.66934 16.0027Z" fill="#E6DFC7"/>
</svg>
