<svg xmlns="http://www.w3.org/2000/svg" width="24" height="20" fill="none"  xmlns:v="https://vecta.io/nano"><path d="M24 2.557a9.83 9.83 0 0 1-2.828.775c1.017-.609 1.798-1.574 2.165-2.724-.951.564-2.005.974-3.127 1.195C19.313.846 18.032.248 16.616.248a4.93 4.93 0 0 0-4.797 6.045C7.728 6.088 4.1 4.128 1.671 1.149a4.93 4.93 0 0 0 1.523 6.574c-.806-.026-1.566-.247-2.229-.616a4.93 4.93 0 0 0 3.949 4.89c-.693.188-1.452.232-2.224.084a4.93 4.93 0 0 0 4.6 3.419A9.9 9.9 0 0 1 0 17.54a13.94 13.94 0 0 0 7.548 2.212c9.142 0 14.307-7.721 13.995-14.646.962-.695 1.797-1.562 2.457-2.549z" fill="#837d88"/></svg>