<svg width="1057" height="1065" viewBox="0 0 1057 1065" fill="none" xmlns="http://www.w3.org/2000/svg">
<path d="M1056.94 1064.94H0V0H1056.94V1064.94Z" fill="#E16B7C"/>
<path d="M242.659 286.191C242.659 295.015 235.493 302.235 226.736 302.235H135.182C126.424 302.235 119.259 295.015 119.259 286.191V256.111C119.259 247.287 126.424 240.068 135.182 240.068H226.736C235.493 240.068 242.659 247.287 242.659 256.111V286.191Z" fill="#E78A98"/>
<path d="M375.96 148.46C375.96 157.283 368.795 164.501 360.038 164.501H268.484C259.727 164.501 252.56 157.283 252.56 148.46V118.38C252.56 109.555 259.727 102.336 268.484 102.336H360.038C368.795 102.336 375.96 109.555 375.96 118.38V148.46Z" fill="#E78A98"/>
<path d="M304.358 216.407C304.358 225.231 297.193 232.449 288.435 232.449H196.882C188.124 232.449 180.958 225.231 180.958 216.407V186.327C180.958 177.503 188.124 170.283 196.882 170.283H288.435C297.193 170.283 304.358 177.503 304.358 186.327V216.407Z" fill="#E78A98"/>
<path d="M171.674 216.407C171.674 225.231 164.509 232.449 155.753 232.449H64.1979C55.4402 232.449 48.2758 225.231 48.2758 216.407V186.327C48.2758 177.503 55.4402 170.283 64.1979 170.283H155.753C164.509 170.283 171.674 177.503 171.674 186.327V216.407Z" fill="#E78A98"/>
<path d="M805.707 173.975C805.707 182.799 798.543 190.019 789.785 190.019H698.23C689.473 190.019 682.308 182.799 682.308 173.975V143.895C682.308 135.071 689.473 127.852 698.23 127.852H789.785C798.543 127.852 805.707 135.071 805.707 143.895V173.975Z" fill="#E78A98"/>
<path d="M937.684 173.975C937.684 182.799 930.517 190.019 921.759 190.019H830.207C821.448 190.019 814.283 182.799 814.283 173.975V143.895C814.283 135.071 821.448 127.852 830.207 127.852H921.759C930.517 127.852 937.684 135.071 937.684 143.895V173.975Z" fill="#E78A98"/>
<path d="M867.407 253.169C867.407 261.993 860.242 269.213 851.486 269.213H759.929C751.173 269.213 744.009 261.993 744.009 253.169V223.089C744.009 214.265 751.173 207.045 759.929 207.045H851.486C860.242 207.045 867.407 214.265 867.407 223.089V253.169Z" fill="#E78A98"/>
<path d="M999.382 921.04C999.382 929.867 992.215 937.082 983.459 937.082H891.906C883.147 937.082 875.982 929.867 875.982 921.04V890.96C875.982 882.137 883.147 874.917 891.906 874.917H983.459C992.215 874.917 999.382 882.137 999.382 890.96V921.04Z" fill="#E78A98"/>
<path d="M937.68 994.567C937.68 1003.39 930.517 1010.61 921.759 1010.61H830.207C821.448 1010.61 814.283 1003.39 814.283 994.567V964.487C814.283 955.664 821.448 948.444 830.207 948.444H921.759C930.517 948.444 937.68 955.664 937.68 964.487V994.567Z" fill="#E78A98"/>
<path d="M805.707 994.567C805.707 1003.39 798.543 1010.61 789.785 1010.61H698.23C689.473 1010.61 682.308 1003.39 682.308 994.567V964.487C682.308 955.664 689.473 948.444 698.23 948.444H789.785C798.543 948.444 805.707 955.664 805.707 964.487V994.567Z" fill="#E78A98"/>
<path d="M734.343 106.129C734.343 114.953 727.177 122.172 718.421 122.172H626.866C618.108 122.172 610.944 114.953 610.944 106.129V76.048C610.944 67.2253 618.108 60.0053 626.866 60.0053H718.421C727.177 60.0053 734.343 67.2253 734.343 76.048V106.129Z" fill="#E78A98"/>
</svg>
