<svg width="430" height="683" viewBox="0 0 430 683" fill="none" xmlns="http://www.w3.org/2000/svg">
<path d="M395.922 628.117H35.8116L42.4427 104.24L211.888 26.728L374.038 98.8947L395.922 628.117Z" fill="#3D2B40"/>
<path d="M49.7382 619.432V339.785H380.008V619.432H49.7382ZM50.1193 222.515H379.628C379.871 226.671 380.008 230.861 380.008 235.088V321.743H49.7382V235.088C49.7382 230.861 49.8745 226.671 50.1193 222.515ZM205.92 48.388V204.473H51.9547C64.386 119.025 127.971 53.104 205.92 48.388ZM223.827 48.388C301.776 53.104 365.359 119.025 377.791 204.473H223.827V48.388ZM214.872 2.3154e-05C96.2012 2.3154e-05 0 96.9307 0 216.5V661.527H429.747V216.5C429.747 96.9307 333.546 2.3154e-05 214.872 2.3154e-05Z" fill="#FDF0C2"/>
<path d="M380.008 235.088H50.1193V222.515H380.008V235.088Z" fill="#2E212E"/>
<path d="M380.008 353.483H49.7382V339.785H380.008V353.483Z" fill="#171415"/>
<path d="M223.831 48.1106V61.852C294.842 66.532 352.668 126.687 364.415 204.473H377.791C365.355 118.992 301.808 52.8293 223.831 48.1106" fill="#BBB18E"/>
<path d="M65.27 204.473C77.0184 126.687 134.904 66.532 205.916 61.852V48.1106C127.938 52.8293 64.3291 118.992 51.8925 204.473H65.27Z" fill="#BBB18E"/>
</svg>
