<svg width="76" height="76" viewBox="0 0 76 76" fill="none" xmlns="http://www.w3.org/2000/svg">
<rect width="76" height="76" rx="38" fill="#FA706C"/>
<path d="M34.6582 28.6709H37.2277C38.6467 28.6709 40.386 29.6591 41.1125 30.8782L44.2927 36.2153H50.075C50.7845 36.2153 51.3597 36.7905 51.3597 37.5C51.3597 38.2096 50.7845 38.7847 50.075 38.7847H44.1705L40.9902 44.1219C40.2638 45.3409 38.5245 46.3291 37.1054 46.3291H34.536L39.0316 38.7847H30.0527L28.2098 41.936H25.6404L28.2346 37.5V37.4576L25.6652 33.064H28.2346L30.0776 36.2153H39.1538L34.6582 28.6709Z" fill="#2D2D2D"/>
<mask id="mask0" mask-type="alpha" maskUnits="userSpaceOnUse" x="25" y="28" width="27" height="19">
<path d="M34.6582 28.6709H37.2277C38.6467 28.6709 40.386 29.6591 41.1125 30.8782L44.2927 36.2153H50.075C50.7845 36.2153 51.3597 36.7905 51.3597 37.5C51.3597 38.2096 50.7845 38.7847 50.075 38.7847H44.1705L40.9902 44.1219C40.2638 45.3409 38.5245 46.3291 37.1054 46.3291H34.536L39.0316 38.7847H30.0527L28.2098 41.936H25.6404L28.2346 37.5V37.4576L25.6652 33.064H28.2346L30.0776 36.2153H39.1538L34.6582 28.6709Z" fill="white"/>
</mask>
<g mask="url(#mask0)">
</g>
</svg>
