<svg width="76" height="76" viewBox="0 0 76 76" fill="none" xmlns="http://www.w3.org/2000/svg">
<rect width="76" height="76" rx="38" fill="#FF5959"/>
<path fill-rule="evenodd" clip-rule="evenodd" d="M25.6528 46.4931C25.6528 48.6218 27.3783 50.3473 29.5069 50.3473H47.493C49.6217 50.3473 51.3472 48.6218 51.3472 46.4931V28.507C51.3472 26.3784 49.6217 24.6528 47.493 24.6528H29.5069C27.3783 24.6528 25.6528 26.3784 25.6528 28.507V46.4931ZM48.7778 46.4931C48.7778 47.2027 48.2026 47.7778 47.493 47.7778H29.5069C28.7974 47.7778 28.2222 47.2027 28.2222 46.4931V28.507C28.2222 27.7975 28.7974 27.2223 29.5069 27.2223H35.9305V37.5143L39.0075 37.5144L41.0696 34.7561L43.1315 37.5144H46.2084L46.2083 27.2223H47.493C48.2026 27.2223 48.7778 27.7975 48.7778 28.507V46.4931ZM38.5 27.2223H43.6389V34.0772L41.0696 30.6402L38.5 34.0774V27.2223Z" fill="#2D2D2D"/>
<mask id="mask0" mask-type="alpha" maskUnits="userSpaceOnUse" x="25" y="24" width="27" height="27">
<path fill-rule="evenodd" clip-rule="evenodd" d="M25.6528 46.4931C25.6528 48.6218 27.3783 50.3473 29.5069 50.3473H47.493C49.6217 50.3473 51.3472 48.6218 51.3472 46.4931V28.507C51.3472 26.3784 49.6217 24.6528 47.493 24.6528H29.5069C27.3783 24.6528 25.6528 26.3784 25.6528 28.507V46.4931ZM48.7778 46.4931C48.7778 47.2027 48.2026 47.7778 47.493 47.7778H29.5069C28.7974 47.7778 28.2222 47.2027 28.2222 46.4931V28.507C28.2222 27.7975 28.7974 27.2223 29.5069 27.2223H35.9305V37.5143L39.0075 37.5144L41.0696 34.7561L43.1315 37.5144H46.2084L46.2083 27.2223H47.493C48.2026 27.2223 48.7778 27.7975 48.7778 28.507V46.4931ZM38.5 27.2223H43.6389V34.0772L41.0696 30.6402L38.5 34.0774V27.2223Z" fill="white"/>
</mask>
<g mask="url(#mask0)">
</g>
</svg>
