<svg width="76" height="76" viewBox="0 0 76 76" fill="none" xmlns="http://www.w3.org/2000/svg">
<rect width="76" height="76" rx="38" fill="#70CE88"/>
<path fill-rule="evenodd" clip-rule="evenodd" d="M43.1256 22.0833H30.1922C28.8204 22.0833 27.7084 23.2607 27.7084 24.7132V48.3823C27.7084 49.8347 28.8204 51.0122 30.1922 51.0122H47.5787C48.9505 51.0122 50.0625 49.8347 50.0625 48.3823V29.4283L43.1256 22.0833ZM30.1922 24.7131H40.1274V29.973C40.1274 31.4254 41.2394 32.6029 42.6112 32.6029H47.5787V48.3823H30.1922V24.7131ZM42.6112 29.973V25.2579L47.0643 29.973H42.6112ZM42.9749 35.6179L37.6436 41.2628L34.7961 38.2478L33.0398 40.1074L37.6436 44.9821L44.7313 37.4775L42.9749 35.6179Z" fill="#262626"/>
</svg>
