<svg width="22" height="24" viewBox="0 0 22 24" fill="none" xmlns="http://www.w3.org/2000/svg">
<path fill-rule="evenodd" clip-rule="evenodd" d="M15.0854 0.875H6.56041C3.02924 0.875 0.166656 3.88824 0.166656 7.60526V16.5789C0.166656 20.296 3.02924 23.3092 6.56041 23.3092H15.0854C18.6166 23.3092 21.4792 20.296 21.4792 16.5789V7.60526C21.4792 3.88824 18.6166 0.875 15.0854 0.875ZM2.29791 7.60526C2.29791 5.12724 4.2063 3.11841 6.56041 3.11841H15.0854C17.4395 3.11841 19.3479 5.12724 19.3479 7.60526V16.5789C19.3479 19.057 17.4395 21.0658 15.0854 21.0658H6.56041C4.2063 21.0658 2.29791 19.057 2.29791 16.5789V7.60526ZM10.8229 17.7007C7.88026 17.7007 5.49478 15.1896 5.49478 12.0921C5.49478 8.99459 7.88026 6.48355 10.8229 6.48355C13.7655 6.48355 16.151 8.99459 16.151 12.0921C16.151 15.1896 13.7655 17.7007 10.8229 17.7007ZM10.8229 15.4572C12.5885 15.4572 14.0198 13.9506 14.0198 12.0921C14.0198 10.2336 12.5885 8.72696 10.8229 8.72696C9.05733 8.72696 7.62604 10.2336 7.62604 12.0921C7.62604 13.9506 9.05733 15.4572 10.8229 15.4572ZM16.151 7.60527C16.7396 7.60527 17.2167 7.10306 17.2167 6.48356C17.2167 5.86405 16.7396 5.36185 16.151 5.36185C15.5625 5.36185 15.0854 5.86405 15.0854 6.48356C15.0854 7.10306 15.5625 7.60527 16.151 7.60527Z" fill="#262626"/>
</svg>
