<svg width="76" height="76" viewBox="0 0 76 76" fill="none" xmlns="http://www.w3.org/2000/svg">
<rect width="76" height="76" rx="38" fill="#717CFF"/>
<path d="M48.2039 27.7557C47.65 28.3096 47.6039 29.1713 48.0962 29.7867C50.3272 32.587 51.4965 36.4181 50.4503 40.4339C49.2348 45.1266 45.5575 48.6347 40.8955 49.5732C33.0486 51.1272 26.171 45.0651 26.171 37.4798C26.171 31.2022 30.8638 26.0325 36.9413 25.2786V28.3866C32.1254 29.202 28.5866 33.7102 29.356 38.8953C29.956 42.911 33.2948 46.1421 37.3259 46.6345C42.9265 47.3269 47.7116 42.9572 47.7116 37.4798C47.7116 35.5565 47.1269 33.7871 46.1268 32.31C45.6037 31.5407 44.4805 31.4946 43.8189 32.1408L43.8035 32.1562C43.2804 32.6793 43.2342 33.4948 43.6342 34.1102C44.5574 35.5257 44.9267 37.3413 44.3882 39.2184C43.7881 41.3263 42.0187 43.0034 39.8647 43.4803C35.8643 44.3573 32.3255 41.3417 32.3255 37.4798C32.3255 34.6179 34.2949 32.2331 36.9413 31.5407V34.8333C36.0181 35.3719 35.4027 36.3412 35.4027 37.4798C35.4027 39.1722 36.7874 40.557 38.4799 40.557C40.1724 40.557 41.5571 39.1722 41.5571 37.4798C41.5571 36.3412 40.9417 35.3565 40.0185 34.8333V23.1861C40.0185 22.586 39.5262 22.0937 38.9261 22.0937C30.6792 21.7859 23.5708 28.3404 23.1246 36.5566C22.5707 46.6345 31.4485 54.743 41.6033 52.5581C47.5731 51.2811 52.1889 46.7114 53.5275 40.757C54.6199 35.895 53.2198 31.2792 50.4964 27.8788C49.9272 27.1557 48.8501 27.1095 48.2039 27.7557Z" fill="#37474F"/>
<mask id="mask0" mask-type="alpha" maskUnits="userSpaceOnUse" x="23" y="22" width="31" height="31">
<path d="M48.2039 27.7557C47.65 28.3096 47.6039 29.1713 48.0962 29.7867C50.3272 32.587 51.4965 36.4181 50.4503 40.4339C49.2348 45.1266 45.5575 48.6347 40.8955 49.5732C33.0486 51.1272 26.171 45.0651 26.171 37.4798C26.171 31.2022 30.8638 26.0325 36.9413 25.2786V28.3866C32.1254 29.202 28.5866 33.7102 29.356 38.8953C29.956 42.911 33.2948 46.1421 37.3259 46.6345C42.9265 47.3269 47.7116 42.9572 47.7116 37.4798C47.7116 35.5565 47.1269 33.7871 46.1268 32.31C45.6037 31.5407 44.4805 31.4946 43.8189 32.1408L43.8035 32.1562C43.2804 32.6793 43.2342 33.4948 43.6342 34.1102C44.5574 35.5257 44.9267 37.3413 44.3882 39.2184C43.7881 41.3263 42.0187 43.0034 39.8647 43.4803C35.8643 44.3573 32.3255 41.3417 32.3255 37.4798C32.3255 34.6179 34.2949 32.2331 36.9413 31.5407V34.8333C36.0181 35.3719 35.4027 36.3412 35.4027 37.4798C35.4027 39.1722 36.7874 40.557 38.4799 40.557C40.1724 40.557 41.5571 39.1722 41.5571 37.4798C41.5571 36.3412 40.9417 35.3565 40.0185 34.8333V23.1861C40.0185 22.586 39.5262 22.0937 38.9261 22.0937C30.6792 21.7859 23.5708 28.3404 23.1246 36.5566C22.5707 46.6345 31.4485 54.743 41.6033 52.5581C47.5731 51.2811 52.1889 46.7114 53.5275 40.757C54.6199 35.895 53.2198 31.2792 50.4964 27.8788C49.9272 27.1557 48.8501 27.1095 48.2039 27.7557Z" fill="white"/>
</mask>
<g mask="url(#mask0)">
</g>
</svg>
