<svg width="42" height="50" fill="none" xmlns="http://www.w3.org/2000/svg"><path fill-rule="evenodd" clip-rule="evenodd" d="M6.125 5.97c-.04-.022-.08-.045-.125-.074h.008l.01-.015c.007-.01.015-.022.02-.035l.036-.011.034-.011c.066.046.088.095.112.147a.576.576 0 0 0 .041.078c2.464 1.547 3.842.716 4.806-1.442.133-.311.26-.647.386-1.006C12.59.258 15.27.217 17.86.178c.829-.013 1.649-.025 2.407-.146 1.827-.286 1.244 1.417.452 2.236-.26.274-.568.505-.886.744-.801.601-1.671 1.255-2.055 2.784.739 0 1.446.005 2.131.009 1.506.01 2.907.019 4.308-.023 2.62-.078 3.064.875 1.62 2.994-.317.468-.573.978-.828 1.488-.32.636-.637 1.27-1.07 1.815-1.514 1.895-1.48 3.19 1.003 4.072.625.223 1.43.778 1.589 1.342.753 2.671 2.558 4.679 4.358 6.68 1.993 2.217 3.98 4.428 4.525 7.526.025.142.042.274.058.395.087.661.13.99 1.206.9 1.833-.173 4.003-.195 4.514 2.144.491 2.23-1.1 3.65-2.803 4.827-.232.159-.409.391-.606.651-.087.114-.177.232-.277.352.157.685.75.704 1.307.72.555.018 1.072.033 1.079.71.01 1.128-1.198 1.653-2.034 1.912-4.264 1.325-8.755 1.775-13.127 1.686-2.334-.052-4.377.694-6.41 1.436-1.474.539-2.943 1.075-4.513 1.303-.23.034-.455.086-.685.138-.833.19-1.722.392-3.076-.152 1.605-.583 2.665-1.765 3.733-2.955 1.594-1.776 3.205-3.572 6.67-3.426-.607-.252-1.094-.457-1.503-.63l-.003-.001c-.798-.337-1.299-.548-1.81-.735-2.331-.842-2.642-2.478-.903-4.372.98-1.064 1.658-2.206-.564-2.667-1.222-.252-.93-.775-.607-1.354.233-.418.483-.866.193-1.263-.372-.511.85-.655 1.555-.567 2.09.27 5.042.631 4.23-2.422-.065-.247-.127-.524-.194-.82v-.001c-.461-2.052-1.12-4.987-4.494-4.543-3.656.48-4.803-.425-2.517-3.741-.465-.208-1.108.032-1.725.262-1.17.438-2.244.839-1.822-1.926.025-.175-.32-.595-.389-.575-.266.084-.537.347-.807.61-.585.567-1.162 1.127-1.657-.16-.352-.918.244-1.16.945-1.445.712-.29 1.531-.622 1.57-1.752-.056-.18-.467-.183-.91-.188-.74-.007-1.566-.015-.969-.84 1.99-2.745.468-3.899-1.235-5.19-.176-.133-.353-.267-.528-.405-.23-.179-.147-.45-.057-.738.042-.137.086-.277.098-.414a.072.072 0 0 0-.003-.016.071.071 0 0 1-.002-.015.594.594 0 0 0-.086-.383 1.522 1.522 0 0 0-.131-.08zM1.478 26.186c-.561-.092-1.2-.68-1.139-1.528.122-1.556 4.864-4.725 6.97-4.6 1.939.107 2.564 1.424 3.152 2.663.238.502.47.991.78 1.381-.09 1.834-1.2 2.87-2.39 2.875-2.34.03-4.699-.355-7.028-.735l-.345-.056zM8.192.877c-2.625.7-4.14 2.095-3.953 4.914-1.758.173-1.248.888-.778 1.547.073.103.146.205.209.303.135-.309.372-.599.615-.898.156-.19.314-.385.451-.59L5.2 6.03c.244-.064.488-.129.73-.19.237-.522.645-.963 1.057-1.41.842-.913 1.708-1.852 1.205-3.554zM3.575 8.425c.422-.148.308-.442.092-.784-.109.24-.172.49-.092.784z" fill="#0E8784"/></svg>