<svg width="236" height="26" fill="none" xmlns="http://www.w3.org/2000/svg"><path fill-rule="evenodd" clip-rule="evenodd" d="M75.651 23.303c0 .507-.255.76-.766.76h-8.997a.745.745 0 0 1-.53-.19c-.135-.126-.203-.305-.203-.537a.77.77 0 0 1 .138-.479.977.977 0 0 1 .432-.297l.701-.215a.73.73 0 0 0 .408-.314c.097-.154.146-.375.146-.661v-9.554a.643.643 0 0 0-.114-.389c-.076-.104-.217-.2-.424-.289l-.945-.314c-.25-.121-.43-.25-.538-.388a.789.789 0 0 1-.163-.504c0-.199.068-.361.204-.488l.053-.045a.83.83 0 0 1 .51-.145h1.43l-.012-.097a1.345 1.345 0 0 0-.229-.556l-.554-.802a5.237 5.237 0 0 1-.554-1.066c-.163-.413-.245-.923-.245-1.529 0-1.443.49-2.597 1.467-3.463C67.844.876 69.235.444 71.04.444c1.162 0 2.127.187 2.893.562.766.375 1.339.873 1.72 1.496.38.622.57 1.303.57 2.041 0 .87-.226 1.524-.677 1.959-.45.435-1.03.653-1.736.653-.782 0-1.412-.254-1.89-.76-.478-.507-.717-1.18-.717-2.017V2.907c0-.386-.076-.67-.228-.851-.153-.182-.386-.273-.701-.273-.402 0-.707.138-.913.413-.207.276-.31.672-.31 1.19 0 .529.123 1.025.367 1.488.244.463.546.895.904 1.297.36.402.718.788 1.076 1.157.359.37.66.733.905 1.091l.07.108c.132.214.22.428.263.64l.015.087h2.414c.25 0 .443.052.58.157.135.105.203.267.203.488 0 .33-.141.6-.424.81-.282.209-.728.314-1.337.314H72.93V21.32c0 .308.046.546.139.71a.589.589 0 0 0 .448.298l1.402.215c.25.033.434.113.554.24.12.127.18.3.18.52zm-32.092.38c-.978.474-2.119.711-3.423.711-1.38 0-2.616-.292-3.708-.876a6.4 6.4 0 0 1-2.583-2.537c-.63-1.107-.945-2.454-.945-4.041 0-1.532.328-2.901.986-4.108a7.379 7.379 0 0 1 2.746-2.86c1.174-.699 2.543-1.049 4.107-1.049 1.337 0 2.464.199 3.382.595.919.397 1.62.934 2.103 1.612a3.82 3.82 0 0 1 .725 2.273c0 .881-.252 1.573-.758 2.074-.505.501-1.192.752-2.061.752-.891 0-1.568-.256-2.03-.768-.461-.513-.692-1.215-.692-2.108v-1.058c0-.54-.098-.947-.294-1.223-.195-.275-.472-.413-.83-.413-.36 0-.683.146-.97.438-.289.292-.511.73-.669 1.314-.158.584-.236 1.306-.236 2.165 0 1.234.182 2.27.546 3.108.364.837.86 1.465 1.491 1.884.63.419 1.347.628 2.151.628.805 0 1.478-.118 2.021-.355.544-.237.962-.637 1.255-1.199.163-.154.291-.253.384-.297a.622.622 0 0 1 .269-.066.374.374 0 0 1 .268.157c.071.093.1.24.09.438-.087 1.08-.418 2.033-.994 2.86-.576.826-1.353 1.476-2.33 1.95zm16.568-.33c-1.223.672-2.643 1.008-4.262 1.008-1.576 0-2.959-.328-4.148-.983a7.067 7.067 0 0 1-2.78-2.72c-.662-1.156-.993-2.495-.993-4.016 0-1.454.347-2.763 1.043-3.925.695-1.163 1.657-2.086 2.884-2.769 1.228-.683 2.64-1.025 4.238-1.025 1.587 0 2.972.33 4.156.992a7.107 7.107 0 0 1 2.771 2.744c.663 1.168.994 2.518.994 4.05 0 1.454-.345 2.757-1.035 3.909-.69 1.151-1.646 2.063-2.868 2.735zm-3.024-.71c-.337.065-.665-.083-.986-.447-.32-.364-.624-.975-.912-1.835-.288-.86-.563-1.989-.824-3.388-.25-1.4-.39-2.551-.423-3.455-.033-.903.032-1.586.195-2.05.163-.462.413-.732.75-.81.337-.065.666.084.986.447.32.364.628.975.92 1.835.294.86.571 1.989.832 3.388.26 1.4.405 2.554.432 3.463.027.91-.043 1.595-.212 2.058-.168.463-.42.727-.758.793zm29.159 1.42c.51 0 .766-.253.766-.76 0-.22-.06-.393-.18-.52s-.304-.207-.554-.24l-1.401-.215a.59.59 0 0 1-.449-.297c-.092-.165-.138-.402-.138-.711V11.023h1.157c.609 0 1.054-.105 1.337-.315.282-.209.423-.479.423-.81 0-.22-.068-.382-.204-.487-.135-.105-.328-.157-.578-.157h-2.414l-.015-.087a1.998 1.998 0 0 0-.264-.64l-.07-.108a8.285 8.285 0 0 0-.904-1.09c-.359-.37-.717-.756-1.076-1.158a6.526 6.526 0 0 1-.905-1.297 3.139 3.139 0 0 1-.366-1.488c0-.518.103-.914.31-1.19.206-.275.51-.413.912-.413.315 0 .549.09.701.273.152.181.228.465.228.85v1.472c0 .837.24 1.51.717 2.016.478.507 1.109.76 1.89.76.707 0 1.286-.217 1.737-.652.45-.435.676-1.088.676-1.959 0-.738-.19-1.419-.57-2.041-.38-.623-.954-1.121-1.72-1.496s-1.73-.562-2.893-.562c-1.804 0-3.194.432-4.172 1.297-.978.865-1.467 2.02-1.467 3.463 0 .606.081 1.116.244 1.53.163.412.348.768.555 1.065l.554.802c.122.178.198.363.229.556l.011.097h-1.43a.83.83 0 0 0-.51.145l-.053.045a.637.637 0 0 0-.203.488c0 .198.054.366.163.504.108.137.288.267.538.388l.945.314c.206.088.348.185.424.29a.643.643 0 0 1 .114.388v9.554c0 .286-.05.506-.147.66a.73.73 0 0 1-.407.315l-.701.215a.977.977 0 0 0-.432.297.77.77 0 0 0-.139.48c0 .23.068.41.204.537.136.126.313.19.53.19h8.997zm12.761-.479c-1.053.54-2.27.81-3.65.81-1.522 0-2.858-.316-4.01-.95a6.822 6.822 0 0 1-2.697-2.661c-.647-1.14-.97-2.46-.97-3.959 0-1.576.312-2.956.937-4.14a6.684 6.684 0 0 1 2.714-2.769c1.184-.661 2.608-.992 4.27-.992 1.413 0 2.63.279 3.651.835 1.021.557 1.806 1.311 2.355 2.265.549.953.823 2.013.823 3.181 0 .507-.136.907-.407 1.199l-.065.064c-.268.25-.637.374-1.109.374h-7.45l.015.076c.198.907.536 1.634 1.014 2.18.814.931 1.901 1.397 3.26 1.397.869 0 1.637-.199 2.306-.596.668-.396 1.116-.947 1.344-1.652a1.24 1.24 0 0 1 .351-.29.64.64 0 0 1 .269-.074c.108 0 .201.044.277.132.076.088.114.237.114.447 0 1.08-.294 2.068-.88 2.966-.587.899-1.408 1.617-2.462 2.157zm-5.779-8.068a12.973 12.973 0 0 1-.023-.791c0-1.036.076-1.851.228-2.446.153-.595.348-1.017.587-1.265.24-.248.505-.372.799-.372.38 0 .736.325 1.067.976.332.65.497 1.73.497 3.24 0 .462-.206.693-.619.693h-2.534l-.002-.035zm21.361 8.068c-1.054.54-2.271.81-3.651.81-1.521 0-2.858-.316-4.009-.95a6.825 6.825 0 0 1-2.698-2.661c-.646-1.14-.97-2.46-.97-3.959 0-1.576.313-2.956.938-4.14a6.68 6.68 0 0 1 2.713-2.769c1.185-.661 2.608-.992 4.271-.992 1.412 0 2.629.279 3.651.835 1.021.557 1.806 1.311 2.355 2.265.548.953.823 2.013.823 3.181 0 .507-.136.907-.408 1.199l-.065.064c-.267.25-.637.374-1.108.374h-7.451l.016.076c.198.907.535 1.634 1.013 2.18.815.931 1.902 1.397 3.26 1.397.869 0 1.638-.199 2.306-.596.668-.396 1.117-.947 1.345-1.652.13-.144.247-.24.35-.29a.64.64 0 0 1 .269-.074c.109 0 .201.044.277.132.076.088.114.237.114.447a5.31 5.31 0 0 1-.88 2.966c-.587.899-1.407 1.617-2.461 2.157zm-5.779-8.068a12.585 12.585 0 0 1-.023-.791c0-1.036.076-1.851.228-2.446.152-.595.348-1.017.587-1.265s.505-.372.798-.372c.381 0 .736.325 1.068.976.331.65.497 1.73.497 3.24 0 .462-.206.693-.619.693h-2.534l-.002-.035zm19.674 8.341c-.136.138-.334.207-.595.207h-8.15c-.239 0-.426-.066-.562-.198-.136-.133-.204-.315-.204-.546a.74.74 0 0 1 .123-.438c.081-.116.192-.223.334-.322l.375-.15a.55.55 0 0 0 .293-.313c.054-.143.081-.38.081-.71v-8.398c0-.264-.029-.454-.089-.57a.618.618 0 0 0-.302-.273l-.423-.05a1.046 1.046 0 0 1-.335-.28.644.644 0 0 1-.106-.38c0-.177.055-.334.163-.471.109-.138.294-.257.555-.356l4.628-1.339c.272-.11.5-.187.685-.231a2.09 2.09 0 0 1 .473-.066c.184 0 .323.066.415.198l.03.048c.076.138.129.36.158.663l.124 2.568.028-.094c.055-.18.116-.351.182-.515.396-.987.921-1.72 1.573-2.199.652-.479 1.363-.719 2.135-.719.934 0 1.651.314 2.151.942.5.629.75 1.582.75 2.86 0 1.267-.261 2.198-.782 2.793-.522.595-1.196.893-2.021.893-.805 0-1.399-.204-1.785-.612-.386-.407-.59-.986-.611-1.735l-.017-.661c-.011-.254-.059-.452-.146-.595-.087-.144-.229-.215-.424-.215-.196 0-.367.102-.513.306-.147.203-.259.515-.335.933-.076.42-.114.954-.114 1.604v5.818c0 .308.049.554.147.735.098.182.25.295.456.34l1.223.247c.228.033.391.119.489.256.097.138.146.3.146.488 0 .22-.068.4-.203.537zm13.03.504c1.619 0 3.04-.336 4.263-1.008 1.222-.672 2.178-1.584 2.868-2.736.69-1.151 1.035-2.454 1.035-3.909 0-1.531-.331-2.881-.994-4.05a7.111 7.111 0 0 0-2.771-2.743c-1.184-.661-2.57-.992-4.156-.992-1.597 0-3.01.342-4.238 1.025-1.228.683-2.189 1.606-2.885 2.769-.695 1.162-1.043 2.47-1.043 3.925 0 1.521.332 2.86.995 4.017a7.065 7.065 0 0 0 2.778 2.719c1.19.655 2.573.983 4.148.983zm.253-2.165c.321.364.649.512.986.446.337-.066.59-.33.758-.793.168-.463.239-1.149.212-2.058-.027-.909-.171-2.063-.432-3.463s-.538-2.529-.831-3.388c-.294-.86-.601-1.471-.921-1.835-.321-.364-.649-.512-.986-.446-.337.077-.587.347-.75.81-.163.463-.228 1.146-.195 2.05.032.903.173 2.054.423 3.454.261 1.4.535 2.529.823 3.388.288.86.593 1.471.913 1.835zm20.838 2.198c.913 0 1.662-.168 2.249-.504.587-.336 1.024-.735 1.312-1.198.288-.463.432-.887.432-1.273a.748.748 0 0 0-.106-.413.324.324 0 0 0-.285-.165.324.324 0 0 0-.147.033.333.333 0 0 0-.114.099c-.054.198-.138.336-.252.413a.646.646 0 0 1-.367.116c-.185 0-.323-.063-.416-.19-.092-.127-.138-.295-.138-.504v-7.306c0-1.455-.492-2.581-1.475-3.38-.984-.8-2.524-1.199-4.621-1.199-1.63 0-2.991.204-4.083.612-1.092.408-1.912.928-2.461 1.562-.549.633-.823 1.28-.823 1.942 0 .705.204 1.242.611 1.612.408.369.997.553 1.769.553.945 0 1.689-.256 2.232-.768.544-.513.815-1.177.815-1.992v-1.256c0-.309.095-.548.286-.72.19-.17.426-.255.709-.255.304 0 .546.113.725.338.179.226.269.532.269.918l-.001 4.818-.086-.019a5.452 5.452 0 0 0-.911-.087l-.176-.002c-2.336 0-4.077.397-5.223 1.19-1.147.794-1.72 1.901-1.72 3.323 0 1.08.394 1.967 1.182 2.661.788.694 1.833 1.041 3.137 1.041.978 0 1.891-.2 2.738-.603.636-.302 1.153-.698 1.55-1.189l.022-.028.024.074c.126.357.355.677.689.96l.103.084c.603.468 1.453.702 2.551.702zm-5.615-3.115c.266.358.617.537 1.051.537l.094-.003c.185-.013.364-.065.537-.155l.053-.03v-4.242l-.081-.025a2.528 2.528 0 0 0-.652-.074c-.423 0-.763.198-1.018.595-.256.397-.383.98-.383 1.752 0 .738.133 1.287.399 1.645zm17.105 3.165c1.935 0 3.418-.446 4.45-1.339 1.032-.892 1.548-2.11 1.548-3.653 0-.936-.173-1.757-.521-2.463-.348-.705-.956-1.33-1.826-1.876-.869-.545-2.091-1.06-3.667-1.545-.587-.187-1.04-.377-1.361-.57-.32-.193-.54-.4-.66-.62a1.474 1.474 0 0 1-.179-.71c0-.375.136-.679.407-.91.272-.231.674-.347 1.206-.347.739 0 1.437.248 2.095.744.657.496 1.383 1.344 2.176 2.545.206.254.413.438.619.554.206.116.402.151.587.107a.575.575 0 0 0 .424-.454c.054-.237.043-.576-.033-1.017l-.424-3.041c-.043-.32-.125-.546-.244-.678a.607.607 0 0 0-.473-.198c-.174 0-.391.06-.652.182-.261.12-.519.245-.774.372-.255.126-.448.19-.579.19-.119 0-.296-.066-.529-.199-.234-.132-.563-.264-.986-.396-.424-.133-.973-.199-1.647-.199-1.119 0-2.127.204-3.023.612-.896.408-1.603.989-2.119 1.744-.516.755-.774 1.655-.774 2.702 0 .926.193 1.736.579 2.43.385.694.975 1.29 1.768 1.785.793.496 1.793.898 2.999 1.207.782.209 1.383.421 1.801.636.418.215.706.449.864.702.157.254.236.535.236.843 0 .408-.136.744-.407 1.009-.272.264-.685.396-1.239.396a3.412 3.412 0 0 1-1.491-.338c-.473-.226-.959-.615-1.459-1.166-.5-.55-1.06-1.305-1.679-2.264-.185-.254-.394-.43-.627-.53a.84.84 0 0 0-.709.017c-.229.089-.375.276-.44.562-.066.287-.049.64.048 1.058l.506 3.29c.076.33.184.55.326.66.141.11.293.166.456.166.185 0 .41-.06.676-.182l.799-.364c.266-.12.481-.181.644-.181.163 0 .377.06.644.181.266.122.614.243 1.043.364.429.121.97.182 1.621.182zm15.452-.62c-.717.38-1.565.57-2.543.57-1.652 0-2.893-.402-3.724-1.206-.831-.805-1.247-2.072-1.247-3.802v-7.471c0-.231-.022-.408-.065-.529-.044-.121-.152-.22-.326-.297l-.766-.248c-.185-.088-.304-.196-.359-.323a1.204 1.204 0 0 1-.081-.47c0-.232.081-.422.244-.571a.861.861 0 0 1 .603-.223h.799a.543.543 0 0 0 .31-.116c.108-.077.255-.231.44-.463l3.015-2.529a2.81 2.81 0 0 1 .652-.603c.217-.138.434-.206.652-.206.25 0 .445.077.586.23l.045.056c.112.154.167.378.167.672v2.959h3.407c.239 0 .424.052.554.157.13.105.196.267.196.488 0 .308-.136.573-.408.793l-.061.045c-.273.19-.688.286-1.243.286h-2.445v7.537c0 .826.139 1.438.416 1.834.277.397.682.595 1.214.595.228 0 .44-.05.636-.148.195-.1.372-.229.53-.389.157-.16.307-.339.448-.537.141-.198.277-.397.407-.595a.243.243 0 0 1 .286.058c.081.082.116.25.105.504-.076.892-.323 1.678-.741 2.355a4.364 4.364 0 0 1-1.703 1.587zm10.675.57c1.38 0 2.597-.27 3.651-.81 1.054-.54 1.875-1.258 2.461-2.157a5.31 5.31 0 0 0 .88-2.966c0-.21-.038-.359-.114-.447a.353.353 0 0 0-.277-.132.644.644 0 0 0-.269.074c-.103.05-.22.146-.35.29-.228.705-.677 1.256-1.345 1.652-.668.397-1.437.596-2.306.596-1.358 0-2.445-.466-3.26-1.397-.477-.546-.815-1.273-1.013-2.18l-.016-.076h7.451c.471 0 .841-.125 1.109-.374l.064-.064c.272-.292.408-.692.408-1.199 0-1.168-.274-2.228-.823-3.181-.549-.954-1.334-1.708-2.355-2.265-1.022-.556-2.239-.835-3.651-.835-1.663 0-3.086.33-4.27.992a6.682 6.682 0 0 0-2.714 2.769c-.625 1.184-.937 2.564-.937 4.14 0 1.499.323 2.818.969 3.959a6.825 6.825 0 0 0 2.698 2.661c1.152.634 2.488.95 4.009.95zm-2.151-9.669c0 .274.008.537.023.79l.002.036h2.534c.413 0 .619-.231.619-.694 0-1.51-.166-2.59-.497-3.24-.331-.65-.687-.975-1.068-.975-.293 0-.559.124-.798.372s-.435.67-.587 1.265c-.152.595-.228 1.41-.228 2.446zm19.102 9.339c.261 0 .459-.07.595-.207a.732.732 0 0 0 .204-.537.82.82 0 0 0-.147-.488c-.098-.137-.261-.223-.489-.256l-1.223-.248a.648.648 0 0 1-.456-.339c-.098-.181-.147-.427-.147-.735v-5.818c0-.65.038-1.185.115-1.604.076-.418.187-.73.334-.934.146-.203.317-.305.513-.305s.337.071.424.215c.087.143.136.341.147.595l.016.66c.022.75.225 1.329.611 1.736.386.408.981.612 1.785.612.826 0 1.499-.298 2.021-.893.521-.595.782-1.526.782-2.793 0-1.278-.25-2.231-.75-2.86-.499-.628-1.217-.942-2.151-.942-.772 0-1.483.24-2.135.72-.652.479-1.176 1.211-1.573 2.198a6.526 6.526 0 0 0-.182.515l-.028.095-.124-2.569c-.029-.304-.082-.525-.158-.663l-.03-.048c-.092-.132-.23-.198-.415-.198a2.09 2.09 0 0 0-.473.066 4.906 4.906 0 0 0-.684.231l-4.629 1.34c-.261.098-.446.217-.554.355a.738.738 0 0 0-.163.47c0 .155.035.282.106.38.07.1.182.194.334.282l.423.05a.618.618 0 0 1 .302.272c.06.116.09.306.09.57v8.397c0 .33-.028.568-.082.71a.55.55 0 0 1-.293.315l-.375.149c-.141.099-.253.206-.334.322a.739.739 0 0 0-.122.438c0 .231.067.413.203.546.136.132.324.198.563.198h8.149zm17.162-.959c-1.032.893-2.515 1.339-4.449 1.339-.652 0-1.193-.06-1.622-.182a7.519 7.519 0 0 1-1.043-.364c-.266-.12-.481-.181-.644-.181-.163 0-.377.06-.644.181l-.798.364c-.266.121-.492.182-.677.182a.726.726 0 0 1-.456-.165c-.141-.11-.25-.33-.326-.662l-.505-3.289c-.098-.418-.114-.771-.049-1.058.065-.286.212-.473.44-.562a.84.84 0 0 1 .709-.016c.234.1.443.275.627.529.62.959 1.179 1.713 1.679 2.264.5.551.986.94 1.459 1.166.473.226.97.338 1.491.338.554 0 .967-.132 1.239-.396.272-.265.407-.6.407-1.009 0-.308-.078-.59-.236-.843-.157-.253-.445-.487-.864-.702-.418-.215-1.018-.427-1.801-.636-1.206-.309-2.205-.711-2.999-1.207-.793-.496-1.382-1.09-1.768-1.785-.386-.694-.579-1.504-.579-2.43 0-1.047.258-1.947.775-2.702.516-.755 1.222-1.336 2.118-1.744.897-.408 1.905-.612 3.024-.612.673 0 1.222.066 1.646.199.424.132.752.264.986.396.234.133.41.199.53.199.13 0 .323-.064.578-.19.256-.127.514-.251.774-.372.261-.121.479-.182.652-.182.196 0 .354.066.473.198.12.132.201.358.245.678l.423 3.041c.076.441.087.78.033 1.017a.574.574 0 0 1-.424.454c-.185.044-.38.009-.587-.107-.206-.116-.412-.3-.619-.554-.793-1.2-1.518-2.05-2.176-2.545-.657-.496-1.355-.744-2.094-.744-.533 0-.935.116-1.206.347a1.136 1.136 0 0 0-.408.91c0 .253.06.49.18.71.119.22.339.427.66.62.32.193.774.383 1.361.57 1.575.485 2.798 1 3.667 1.545.869.546 1.478 1.171 1.825 1.876.348.706.522 1.527.522 2.463 0 1.543-.516 2.76-1.549 3.653z" fill="#fff"/><path fill-rule="evenodd" clip-rule="evenodd" d="M14.39 4.447C10.874.935 5.664.43 2.775 3.322c-2.89 2.89-2.385 8.1 1.124 11.613a10.607 10.607 0 0 0 3.153 2.164c.373-2.17 1.444-4.257 3.07-5.97a22.979 22.979 0 0 0-1.666-.511C5.046 9.682 3.35 6.836 2.955 3.5c.327.394.626.807.923 1.219.577.8 1.15 1.594 1.928 2.234 1.21.997 2.539 1.381 3.992 1.802l.17.05a7.17 7.17 0 0 1 1.835.84c1.443-1.055 3.07-1.757 4.75-2.047a10.573 10.573 0 0 0-2.164-3.151zM8.445 17.933c.224-2.173 1.277-4.299 2.964-5.986 3.515-3.512 8.724-4.019 11.613-1.125 2.89 2.89 2.386 8.1-1.127 11.613-1.687 1.687-3.813 2.74-5.986 2.966-.29.028-.576.043-.856.043-1.87 0-3.539-.655-4.769-1.886-1.416-1.414-2.07-3.412-1.839-5.625zm5.14 1.784c1.153-.88 2.4-1.227 3.755-1.598 3.411-.936 5.104-3.781 5.502-7.117-.325.391-.62.802-.916 1.21-.579.803-1.154 1.6-1.936 2.243-1.213.998-2.545 1.383-4.005 1.806l-.155.045c-3.338.969-4.988 3.79-5.369 7.074.329-.395.63-.805.93-1.213.65-.886 1.293-1.761 2.195-2.45z" fill="#0E8784"/></svg>