<svg width="1440" height="250" viewBox="0 0 1440 250" fill="none" xmlns="http://www.w3.org/2000/svg">
<rect width="1440" height="250" fill="#3A3054"/>
<mask id="mask0" mask-type="alpha" maskUnits="userSpaceOnUse" x="0" y="0" width="1440" height="250">
<rect width="1440" height="250" fill="white"/>
</mask>
<g mask="url(#mask0)">
<path fill-rule="evenodd" clip-rule="evenodd" d="M830 -63.4815C830 19.3514 854.361 78.6789 944.732 117C1035.1 155.321 1122.42 120.352 1210.01 140.4C1297.6 160.448 1297.6 289.595 1380.09 369.071C1462.57 448.547 1636.49 467.852 1777.91 387.221C1919.32 306.589 1983.43 118.325 1941.17 7.31897C1898.92 -103.687 1817.94 -205 1427.24 -205C1036.53 -205 830 -146.314 830 -63.4815Z" fill="#4B3F6B"/>
<path fill-rule="evenodd" clip-rule="evenodd" d="M-263.351 570.909C-233.666 648.24 -189.662 694.897 -91.5605 698.286C6.54131 701.676 75.5245 637.739 164.482 625.066C253.44 612.392 299.722 732.961 405.211 777.598C510.7 822.236 679.987 777.931 783.113 651.976C886.239 526.021 878.619 327.289 799.391 238.798C720.162 150.307 608.257 84.7429 243.501 224.76C-121.256 364.777 -293.036 493.578 -263.351 570.909Z" fill="#4B3F6B"/>
<path fill-rule="evenodd" clip-rule="evenodd" d="M-514 -377.482C-514 -294.649 -489.639 -235.321 -399.268 -197C-308.897 -158.679 -221.582 -193.648 -133.991 -173.6C-46.4005 -153.552 -46.4006 -24.4053 36.0855 55.071C118.572 134.547 292.491 153.852 433.906 73.2205C575.321 -7.41135 639.427 -195.675 597.173 -306.681C554.919 -417.687 473.943 -519 83.2357 -519C-307.471 -519 -514 -460.314 -514 -377.482Z" fill="#4B3F6B"/>
</g>
</svg>
