<svg width="1110" height="168" viewBox="0 0 1110 168" fill="none" xmlns="http://www.w3.org/2000/svg">
<rect width="1110" height="168" rx="10" fill="#3A3054"/>
<mask id="mask0" mask-type="alpha" maskUnits="userSpaceOnUse" x="0" y="0" width="1110" height="168">
<rect width="1110" height="168" rx="10" fill="white"/>
</mask>
<g mask="url(#mask0)">
<path fill-rule="evenodd" clip-rule="evenodd" d="M647 -93.9235C647 -41.2004 662.5 -3.43848 720 20.9529C777.5 45.3442 833.055 23.0865 888.786 35.847C944.517 48.6075 944.517 130.809 997 181.396C1049.48 231.983 1160.14 244.27 1250.12 192.948C1340.1 141.626 1380.88 21.7965 1354 -48.8591C1327.12 -119.515 1275.59 -184 1027 -184C778.407 -184 647 -146.647 647 -93.9235Z" fill="#4B3F6B"/>
<path fill-rule="evenodd" clip-rule="evenodd" d="M-134 119.076C-134 171.8 -118.5 209.562 -61 233.953C-3.5 258.344 52.055 236.087 107.786 248.847C163.517 261.608 163.517 343.809 216 394.396C268.483 444.983 379.142 457.27 469.119 405.948C559.096 354.626 599.885 234.796 573 164.141C546.115 93.4854 494.593 29 246 29C-2.59314 29 -134 66.3533 -134 119.076Z" fill="#4B3F6B"/>
</g>
</svg>
