<svg width="32" height="32" viewBox="0 0 32 32" fill="none" xmlns="http://www.w3.org/2000/svg">
<path d="M26.66 8.91733C27.8552 8.20278 28.7496 7.07764 29.176 5.752C28.0529 6.4184 26.824 6.88783 25.5427 7.13999C23.7661 5.2607 20.9513 4.80336 18.6712 6.02354C16.391 7.24371 15.21 9.83931 15.788 12.36C11.1875 12.129 6.90128 9.95588 3.99599 6.38133C2.47978 8.99656 3.25459 12.3397 5.76666 14.0213C4.85827 13.9921 3.97003 13.7462 3.17599 13.304C3.17599 13.328 3.17599 13.352 3.17599 13.376C3.17652 16.1002 5.09649 18.4468 7.76666 18.9867C6.92408 19.2159 6.04027 19.2496 5.18266 19.0853C5.93359 21.415 8.08072 23.011 10.528 23.0587C8.5011 24.6495 5.99796 25.5122 3.42132 25.508C2.96462 25.5087 2.50827 25.4824 2.05466 25.4293C4.67118 27.1107 7.71648 28.0031 10.8267 28C15.1537 28.0297 19.312 26.3239 22.3716 23.264C25.4312 20.2042 27.1367 16.0457 27.1067 11.7187C27.1067 11.4707 27.1009 11.224 27.0893 10.9787C28.2099 10.1688 29.1771 9.16553 29.9453 8.016C28.9013 8.47875 27.794 8.78256 26.66 8.91733Z" fill="#E6DFC7"/>
</svg>
