<svg width="64" height="64" viewBox="0 0 64 64" fill="none" xmlns="http://www.w3.org/2000/svg">
<path d="M30.3242 41H18.5586V24.1953H21.9219V37.6367H30.3242V41ZM41.9727 34.2852V30.9219C41.9727 30.4609 41.8828 30.0273 41.7031 29.6211C41.5312 29.207 41.293 28.8477 40.9883 28.543C40.6836 28.2383 40.3242 28 39.9102 27.8281C39.5039 27.6484 39.0703 27.5586 38.6094 27.5586C38.1484 27.5586 37.7109 27.6484 37.2969 27.8281C36.8906 28 36.5352 28.2383 36.2305 28.543C35.9258 28.8477 35.6836 29.207 35.5039 29.6211C35.332 30.0273 35.2461 30.4609 35.2461 30.9219V34.2852H41.9727ZM45.3359 41H41.9727V37.6367H35.2461V41H31.8945V30.9219C31.8945 29.9922 32.0703 29.1211 32.4219 28.3086C32.7734 27.4883 33.25 26.7734 33.8516 26.1641C34.4609 25.5547 35.1719 25.0742 35.9844 24.7227C36.8047 24.3711 37.6797 24.1953 38.6094 24.1953C39.5391 24.1953 40.4102 24.3711 41.2227 24.7227C42.043 25.0742 42.7578 25.5547 43.3672 26.1641C43.9766 26.7734 44.457 27.4883 44.8086 28.3086C45.1602 29.1211 45.3359 29.9922 45.3359 30.9219V41Z" fill="#E6DFC7"/>
<path d="M2 32C2 15.4315 15.4315 2 32 2H62V32C62 48.5685 48.5685 62 32 62H2V32Z" stroke="#E6DFC7" stroke-width="4"/>
</svg>
