<svg xmlns="http://www.w3.org/2000/svg" width="24" height="24" fill="none"  xmlns:v="https://vecta.io/nano"><path fill-rule="evenodd" d="M12 0L7.053.072C2.695.272.273 2.69.073 7.052L0 12l.072 4.948c.2 4.358 2.618 6.78 6.98 6.98L12 24l4.948-.072c4.354-.2 6.782-2.618 6.979-6.98L24 12l-.072-4.947c-.196-4.354-2.617-6.78-6.979-6.98L12 0zm0 2.163l4.85.07c3.252.148 4.771 1.691 4.919 4.919l.069 4.849-.069 4.849c-.149 3.225-1.664 4.771-4.919 4.919l-4.85.07c-3.204 0-3.584-.012-4.849-.07-3.26-.149-4.771-1.699-4.919-4.92L2.162 12l.07-4.849c.149-3.227 1.664-4.771 4.919-4.919L12 2.163zM5.838 12c0-3.403 2.759-6.162 6.162-6.162S18.162 8.597 18.162 12 15.403 18.163 12 18.163 5.838 15.403 5.838 12zM12 16a4 4 0 1 1 0-8 4 4 0 1 1 0 8zm4.965-10.405a1.44 1.44 0 1 1 2.88 0 1.44 1.44 0 1 1-2.88 0z" fill="#837d88"/></svg>