<svg width="120" height="120" viewBox="0 0 120 120" fill="none" xmlns="http://www.w3.org/2000/svg">
<g clip-path="url(#clip0)">
<ellipse opacity="0.6" cx="60.0312" cy="59.9976" rx="59.2344" ry="59.2012" fill="#FF9200"/>
<mask id="mask0" mask-type="alpha" maskUnits="userSpaceOnUse" x="0" y="0" width="120" height="120">
<ellipse cx="60.0312" cy="59.9976" rx="59.2344" ry="59.2012" fill="white"/>
</mask>
<g mask="url(#mask0)">
</g>
<g clip-path="url(#clip1)">
<path fill-rule="evenodd" clip-rule="evenodd" d="M91.5392 58.8393C93.619 59.618 96.9982 57.176 96.9982 57.176C84.2641 52.3973 91.5392 31.8415 81.938 20.3118C72.336 8.78215 60.667 16.7848 60.667 16.7848C60.667 16.7848 48.9972 8.78215 39.3959 20.3118C29.794 31.8415 37.0698 52.3973 24.3357 57.176C24.3357 57.176 27.7149 59.618 29.794 58.8393C29.794 58.8393 39.5377 86.5265 20.3709 97.0849C20.3709 97.0849 43.9813 121.403 60.667 115.691C77.3526 121.403 100.963 97.0849 100.963 97.0849C81.7969 86.5265 91.5392 58.8393 91.5392 58.8393Z" fill="#41403E"/>
<path fill-rule="evenodd" clip-rule="evenodd" d="M101.749 95.7181C100.986 92.0562 88.7681 85.1921 84.7967 84.2771C80.826 83.3615 78.5356 89.3953 78.5356 89.3953L60.667 108.38L42.7984 89.3953C42.7984 89.3953 40.5081 83.3615 36.5367 84.2771C32.5653 85.1921 20.3485 92.0562 19.5854 95.7181C18.8218 99.3794 14.088 123.481 18.8218 132.787H60.667H102.512C107.246 123.481 102.512 99.3794 101.749 95.7181Z" fill="#FF9200"/>
<path fill-rule="evenodd" clip-rule="evenodd" d="M69.3864 70.4098H51.9471C51.9471 87.968 41.2708 89.1588 41.2708 89.1588C41.2708 105.787 60.6667 108.38 60.6667 108.38C60.6667 108.38 80.0627 105.787 80.0627 89.1588C80.0627 89.1588 69.3864 87.968 69.3864 70.4098Z" fill="#EDD0A8"/>
<path fill-rule="evenodd" clip-rule="evenodd" d="M60.6668 76.8187C53.2863 76.8187 47.6531 70.6103 45.1283 65.9546C42.6034 61.299 40.8569 34.5267 46.2953 27.1546C51.6205 19.9352 60.6668 20.7523 60.6668 20.7523C60.6668 20.7523 69.713 19.9352 75.0395 27.1546C80.4773 34.5267 78.7301 61.299 76.2052 65.9546C73.6804 70.6103 68.0472 76.8187 60.6668 76.8187Z" fill="#FCE5C5"/>
<path fill-rule="evenodd" clip-rule="evenodd" d="M42.8923 52.5642C65.3316 49.3554 70.5456 33.5333 70.5456 33.5333C70.5456 33.5333 71.1973 42.185 78.6023 47.9899C78.6023 47.9899 83.9043 32.916 75.4939 24.6381C67.0822 16.3589 53.3532 16.6063 45.0667 25.5028C36.7789 34.398 42.8923 52.5642 42.8923 52.5642Z" fill="#41403E"/>
<path fill-rule="evenodd" clip-rule="evenodd" d="M34.0095 110.242C34.0095 110.242 28.9665 127.402 43.2922 132.788H31.8324C31.8324 132.788 30.2276 118.942 34.0095 110.242Z" fill="#006F5C"/>
<path fill-rule="evenodd" clip-rule="evenodd" d="M87.3243 110.242C87.3243 110.242 92.3674 127.402 78.0416 132.788H89.5014C89.5014 132.788 91.1063 118.942 87.3243 110.242Z" fill="#006F5C"/>
</g>
</g>
<defs>
<clipPath id="clip0">
<rect width="120" height="120" fill="white"/>
</clipPath>
<clipPath id="clip1">
<rect width="88.1875" height="118.933" fill="white" transform="translate(16.745 13.9888)"/>
</clipPath>
</defs>
</svg>
