<svg width="14" height="14" viewBox="0 0 14 14" fill="none" xmlns="http://www.w3.org/2000/svg">
<path fill-rule="evenodd" clip-rule="evenodd" d="M6.31294 12.4282C8.65456 12.4282 10.5601 10.5307 10.5797 8.21571C10.5993 5.8784 8.72194 3.90184 6.31907 3.8976C3.97032 3.89346 2.05702 5.8047 2.05649 8.1621C2.05592 10.5248 3.95496 12.4282 6.31294 12.4282ZM9.72043 3.87156C10.2836 3.30775 10.8398 2.75094 11.4062 2.18395C11.2596 2.18395 11.1157 2.1859 10.9718 2.18338C10.8453 2.18119 10.7174 2.18461 10.5926 2.16705C10.278 2.12267 10.0677 1.8382 10.0938 1.5063C10.1168 1.21412 10.376 0.971682 10.677 0.97073C11.4258 0.968349 12.1746 0.968206 12.9234 0.970825C13.2204 0.971825 13.4726 1.20202 13.4967 1.49992C13.5119 1.68913 13.5078 1.88019 13.5076 2.0704C13.5066 2.65344 13.5122 3.23667 13.4972 3.81938C13.4887 4.15332 13.21 4.39561 12.8858 4.38713C12.5551 4.37847 12.3008 4.11818 12.2958 3.77981C12.2925 3.55376 12.2939 3.3276 12.2928 3.10155C12.2928 3.09403 12.2883 3.0866 12.2938 3.1036C11.7448 3.65331 11.1875 4.21145 10.6238 4.77607C11.5976 6.04437 11.9799 7.50807 11.7039 9.12469C11.47 10.4941 10.7837 11.6105 9.69889 12.4734C7.55403 14.1795 4.41623 14.004 2.48444 12.0777C0.491402 10.0903 0.285227 6.97064 2.00547 4.7883C2.6142 4.0161 3.37267 3.43844 4.28619 3.0727C5.19952 2.707 6.14704 2.60135 7.11867 2.74318C8.0902 2.88502 8.96126 3.26895 9.72043 3.87156Z" fill="#B1BFCD"/>
</svg>
