<svg width="12" height="15" viewBox="0 0 12 15" fill="none" xmlns="http://www.w3.org/2000/svg">
<path fill-rule="evenodd" clip-rule="evenodd" d="M10.3561 5.41156C10.3554 3.15948 8.52035 1.30839 6.28763 1.30766C3.99795 1.30688 2.15867 3.13327 2.15854 5.40772C2.1584 7.67616 3.99269 9.51712 6.25556 9.51968C8.51473 9.52225 10.3567 7.67685 10.3561 5.41156ZM6.84076 13.5283C6.84076 13.8154 6.84282 14.0895 6.84016 14.3635C6.83737 14.6546 6.66323 14.8842 6.40248 14.9481C6.02285 15.0411 5.68189 14.773 5.67466 14.3717C5.67041 14.1351 5.67379 13.8984 5.67379 13.6617C5.67379 13.6209 5.67379 13.58 5.67379 13.5283C5.41336 13.5283 5.16642 13.5285 4.91949 13.5283C4.56649 13.5282 4.30963 13.2933 4.30057 12.9627C4.29137 12.6267 4.54238 12.3711 4.89885 12.3616C5.116 12.3558 5.33343 12.3603 5.55071 12.3601C5.58791 12.3601 5.62511 12.3601 5.67379 12.3601C5.67379 12.2761 5.67379 12.2045 5.67379 12.1329C5.67379 11.6863 5.66991 11.2396 5.67649 10.7932C5.67819 10.6809 5.64561 10.6515 5.53415 10.6339C3.79146 10.3595 2.46985 9.45609 1.62413 7.90839C0.535127 5.91533 0.858701 3.48512 2.40314 1.82453C3.26895 0.893601 4.3391 0.34398 5.59835 0.179648C8.30238 -0.173297 10.8437 1.64224 11.409 4.32258C11.8739 6.52716 10.8961 8.77105 8.96545 9.93237C8.3367 10.3106 7.65843 10.5455 6.9319 10.6414C6.87594 10.6488 6.83989 10.6596 6.84012 10.728C6.84176 11.2659 6.84103 11.8039 6.84103 12.3601C6.88766 12.3601 6.92755 12.36 6.9675 12.3601C7.19998 12.3613 7.43291 12.3541 7.66489 12.3658C7.96819 12.381 8.19065 12.6089 8.21343 12.9089C8.23521 13.1959 8.04085 13.4549 7.75067 13.5164C7.68094 13.5311 7.60682 13.5275 7.53471 13.5279C7.30699 13.5292 7.07928 13.5283 6.84076 13.5283Z" fill="#B1BFCD"/>
</svg>
